<?xml version="1.0" encoding="UTF-8"?>
<svg width="23px" height="16px" viewBox="0 0 23 16" version="1.1" xmlns="http://www.w3.org/2000/svg" xmlns:xlink="http://www.w3.org/1999/xlink">
    <!-- Generator: Sketch 53.1 (72631) - https://sketchapp.com -->
    <title>ICELAND</title>
    <desc>Created with Sketch.</desc>
    <g id="Symbols" stroke="none" stroke-width="1" fill="none" fill-rule="evenodd">
        <g id="Header/Dark" transform="translate(-1067.000000, -17.000000)" fill="#464646" fill-rule="nonzero">
            <g id="Group" transform="translate(1067.000000, 15.000000)">
                <g id="Links">
                    <g id="Blank_map_of_Iceland">
                        <path d="M12.0226804,17.9872053 C12.0196732,17.9842006 11.9687572,17.9800484 11.90952,17.9779778 C11.8502953,17.9759093 11.8018961,17.9654203 11.8019802,17.9546724 C11.8022285,17.9250028 11.7230833,17.9315942 11.6910364,17.9639124 C11.668847,17.9863111 11.6454574,17.9829705 11.5818349,17.9483021 C11.5036219,17.905689 11.498485,17.905621 11.4306103,17.9462992 C11.3812881,17.9758513 11.3531619,17.9810886 11.3362543,17.9638658 C11.3229961,17.9503695 11.2833217,17.9452593 11.2480905,17.9525117 C11.1810866,17.9663007 10.955766,17.8714755 10.9038917,17.8076507 C10.889298,17.7896992 10.8586514,17.7750733 10.8357877,17.775152 C10.8129368,17.7752293 10.7800578,17.7608598 10.7627438,17.7432198 C10.7454166,17.7255792 10.6885348,17.7039658 10.6363317,17.695192 C10.5701151,17.684063 10.5450863,17.6697081 10.5535817,17.6477212 C10.5621613,17.6255177 10.5518137,17.6199366 10.5186021,17.6288358 C10.4847647,17.6378981 10.4491558,17.6173706 10.392548,17.5561913 C10.3223147,17.4802906 10.2989086,17.4699907 10.1796596,17.4625064 C10.0936252,17.4571067 10.0062968,17.4328657 9.9356374,17.3947631 C9.87511909,17.3621287 9.79759982,17.335524 9.76338789,17.3356408 C9.72916345,17.3357576 9.66508303,17.324707 9.62097826,17.3110857 C9.57687707,17.2974638 9.44757394,17.2891718 9.33363579,17.292658 C8.85611664,17.3072733 8.85672338,17.3073762 8.70907344,17.1858007 C8.63589724,17.1255437 8.57263965,17.067305 8.56851265,17.0563819 C8.56437636,17.0454577 8.54653933,17.0365702 8.52885757,17.0366304 C8.51116937,17.0366899 8.33197703,16.8693633 8.13064107,16.6647928 C7.92930655,16.4602237 7.75557024,16.2928782 7.74455836,16.292916 C7.73354683,16.2929537 7.68486037,16.2566272 7.63636101,16.2121896 C7.58786415,16.1677527 7.53783756,16.1303838 7.52519255,16.1291483 C7.44334773,16.1211491 7.40492868,16.1035209 7.36471014,16.0555134 C7.28298159,15.9579583 7.14024891,15.8785169 7.02302483,15.8653408 C6.93401036,15.8553355 6.89304234,15.8353553 6.83010994,15.7712514 C6.78616437,15.7264893 6.7375101,15.6899085 6.72198843,15.6899616 C6.7064664,15.6900154 6.68793642,15.6743331 6.68080683,15.6551155 C6.67367868,15.6358975 6.65317141,15.6202228 6.63523565,15.620283 C6.61729989,15.620345 6.57309173,15.6048162 6.53699554,15.5857756 C6.46737323,15.5490509 6.3411285,15.5395826 6.3120585,15.5689053 C6.30248835,15.5785595 6.28257674,15.586516 6.26781099,15.5865869 C6.25116778,15.586667 6.24365755,15.6163811 6.2480525,15.6647519 L6.25514202,15.7427859 L6.14391811,15.7364466 C6.03765153,15.7303898 5.9514987,15.7480974 5.7212845,15.8233111 C5.66417805,15.8419685 5.60127248,15.8572355 5.5814918,15.8572401 C5.54207785,15.8572486 5.43713387,15.7516046 5.41693284,15.6915838 C5.39438783,15.6246015 5.28950897,15.6164096 5.22649858,15.6767107 C5.19573357,15.706152 5.17028078,15.7426538 5.16993984,15.7578264 C5.16898715,15.8000801 5.08733337,15.817241 5.00102885,15.7933267 C4.95835616,15.7815028 4.90882648,15.7798596 4.89096405,15.7896737 C4.85038347,15.8119688 4.70903636,15.7921161 4.70926353,15.7641535 C4.70935619,15.7527809 4.68694784,15.7435523 4.6594659,15.743646 C4.63198431,15.74374 4.59096799,15.7267525 4.56831781,15.7058949 C4.53045326,15.6710328 4.52256238,15.6710093 4.47045476,15.7056071 C4.43928084,15.7263074 4.40631245,15.7665005 4.39718949,15.7949304 C4.38158089,15.8435672 4.37885054,15.8441676 4.35092427,15.8051124 C4.32270966,15.7656529 4.31979364,15.7659414 4.29173679,15.8109808 C4.26874782,15.847885 4.25288057,15.8532933 4.219934,15.8354551 C4.1870622,15.8176567 4.16858516,15.8238097 4.13697515,15.8630865 C4.09941147,15.9097603 4.0890904,15.9114441 4.00176165,15.8851571 C3.91546678,15.859181 3.90085988,15.8612787 3.83437861,15.9092086 C3.79431748,15.9380904 3.75839336,15.9579612 3.75454505,15.9533684 C3.70448948,15.8936115 3.69566524,15.832878 3.72950689,15.7810609 C3.77798515,15.7068355 3.77600644,15.6692485 3.72095669,15.6185618 C3.66752969,15.5693672 3.6615313,15.4946186 3.70950585,15.4758544 C3.72798252,15.4686269 3.7502331,15.4165426 3.75908454,15.3597936 C3.77291226,15.2711581 3.78278006,15.2568182 3.83006164,15.2566561 C3.86026678,15.2565536 3.88506525,15.2459723 3.88516971,15.2331446 C3.8852731,15.220315 3.85504435,15.2099225 3.8179919,15.2100486 C3.77262571,15.2102039 3.73521479,15.1902619 3.7034309,15.1489821 C3.64657738,15.0751413 3.6444756,15.0288094 3.6947122,14.956786 C3.71771941,14.9238033 3.73503519,14.8462319 3.7388624,14.7590181 C3.74647244,14.585567 3.76831876,14.5104776 3.81121505,14.5103312 C3.85317905,14.5101877 4.07290368,14.7800011 4.07265289,14.8313653 C4.07214632,14.935115 4.11763236,15.0359824 4.16832258,15.043513 C4.28258056,15.060488 4.40406507,15.0551545 4.40524815,15.0331109 C4.41022373,14.9402925 4.445105,14.8813643 4.49516451,14.8811934 C4.52485806,14.8810922 4.57565489,14.8599265 4.60804265,14.8341588 C4.67827349,14.7782856 4.7244761,14.7746505 4.76294381,14.8219685 C4.80619929,14.8751803 4.84554957,14.864338 4.93437765,14.7747349 C4.9890879,14.7195469 5.03692256,14.6927488 5.08098905,14.6925993 C5.14721489,14.6923727 5.1913955,14.6659301 5.244947,14.5944698 C5.26952115,14.5616779 5.26704839,14.5475819 5.23012186,14.5099687 C5.20574626,14.4851401 5.1744897,14.4609273 5.16066304,14.456165 C5.14308181,14.4501063 5.14453713,14.4299428 5.16550232,14.3890894 C5.1867673,14.3476544 5.21136292,14.3324619 5.25012005,14.3368239 C5.3153052,14.344156 5.34175003,14.3674465 5.30153078,14.3821002 C5.25531672,14.3989384 5.2679281,14.4353889 5.31990943,14.4352119 C5.35838251,14.4350808 5.36467532,14.4250188 5.35280019,14.3826191 C5.31766062,14.2571573 5.28232715,14.2014889 5.22177235,14.1761852 C5.17540196,14.1568077 5.16415396,14.1419645 5.18211477,14.1238474 C5.20007629,14.1057292 5.22087977,14.1072228 5.25547091,14.129114 C5.29551093,14.1544529 5.30704512,14.1543339 5.32302614,14.1284124 C5.33834855,14.1035653 5.34865781,14.1060472 5.37331032,14.1405236 C5.40021163,14.1781461 5.41081819,14.1797765 5.45337068,14.1528346 C5.49566237,14.1260569 5.50889445,14.1277357 5.54938058,14.1650149 C5.5752083,14.1887961 5.59641746,14.1986537 5.59651298,14.1869232 C5.5966085,14.1751919 5.57608156,14.1525543 5.55089923,14.1366164 C5.52571582,14.1206799 5.5056053,14.0893589 5.50620775,14.0670154 C5.50714076,14.0324411 5.51367219,14.0341848 5.5500714,14.0787249 C5.57359377,14.1075091 5.60671778,14.1301838 5.6236819,14.1291136 C5.64693632,14.1276452 5.64747223,14.1242958 5.62585773,14.1154998 C5.60002429,14.104988 5.5840354,14.0377921 5.60734921,14.0377123 C5.64409507,14.0375873 5.68949955,14.0711299 5.68927989,14.0982399 C5.68907919,14.1228908 5.69897096,14.120848 5.73027367,14.0897738 C5.76974594,14.0505864 5.7687353,14.0480286 5.70692265,14.0306593 C5.67138706,14.0206735 5.6486596,14.0022109 5.65641453,13.9896325 C5.66417089,13.9770536 5.67893664,13.9720349 5.68922658,13.9784793 C5.6995176,13.9849232 5.71331098,13.96998 5.71988069,13.9452743 C5.73215292,13.8991169 5.69841681,13.8741288 5.62416665,13.874382 C5.59300561,13.8744888 5.58631462,13.8594562 5.59428993,13.8072718 C5.60552075,13.7337907 5.56558913,13.6907613 5.52456745,13.7321408 C5.51036551,13.7464661 5.48042941,13.758249 5.45804074,13.7583255 C5.42288722,13.7584452 5.42820731,13.7372556 5.4970322,13.602998 C5.54086686,13.5174922 5.585524,13.4412418 5.59627293,13.4335563 C5.60702115,13.4258687 5.65541927,13.3702369 5.70382383,13.3099298 C5.78881147,13.2040461 5.7952388,13.200693 5.89103799,13.21227 C5.95077747,13.21949 5.99649426,13.2141202 6.00595709,13.1987727 C6.01530114,13.1836186 6.00301317,13.1733504 5.97564749,13.1734434 C5.91715118,13.1736432 5.88845826,13.1281742 5.93029668,13.1015788 C5.97207429,13.0750254 6.27612151,13.0809082 6.31257402,13.1089762 C6.35017347,13.1379264 6.46248637,13.1078002 6.45104948,13.0718316 C6.44610539,13.0562861 6.40669322,13.0371967 6.36346565,13.0294122 C6.31331492,13.0203795 6.30361776,13.0140822 6.33667344,13.0120102 C6.36516317,13.0102242 6.38856534,12.9975684 6.38867768,12.9838888 C6.38878786,12.9702073 6.36037505,12.9624321 6.32553528,12.9666096 C6.28650626,12.9712903 6.26293236,12.9876332 6.26412152,13.0091875 C6.26535504,13.0315808 6.24246767,13.0460083 6.20051441,13.0492819 C6.1244984,13.0552181 6.11240826,13.0211993 6.18374097,13.0020892 C6.21091096,12.9948105 6.22550892,12.9780345 6.21697982,12.9638884 C6.20861636,12.950015 6.19208476,12.9447363 6.18024147,12.9521568 C6.16840032,12.9595784 6.15878009,12.957158 6.15886487,12.9467798 C6.15894823,12.9364012 6.09787398,12.9281174 6.0231448,12.9283717 C5.94841239,12.928627 5.89768712,12.9353602 5.91042156,12.9433349 C5.92315565,12.9513085 5.90399281,12.9577275 5.86783794,12.9575968 C5.83168272,12.9574686 5.81514826,12.9526913 5.83109423,12.9469831 C5.86913872,12.9333655 5.84464076,12.8939939 5.79822064,12.8941531 C5.77831296,12.8942208 5.72604793,12.9168221 5.68207732,12.9443766 C5.5971276,12.9976119 5.61043981,13.0336606 5.71518631,13.034026 C5.74366244,13.0341247 5.76692115,13.0390522 5.76687285,13.0449741 C5.76671437,13.0644495 5.5712913,13.2570659 5.48465121,13.3231432 C5.37587466,13.4061023 5.18564217,13.4201883 5.12979965,13.3494185 C5.10472786,13.3176452 5.0910114,13.3131703 5.08232596,13.3339321 C5.06627231,13.3723036 5.02785326,13.3716579 5.028167,13.3330193 C5.02847359,13.2953619 5.20032349,13.1233902 5.21882092,13.1422314 C5.22625173,13.1497975 5.2397929,13.1227659 5.24891479,13.0821586 C5.26262661,13.021127 5.25478796,12.9969341 5.20370208,12.9425937 C5.1697141,12.9064385 5.14883835,12.8656107 5.15731344,12.8518652 C5.16621674,12.8374252 5.12867739,12.805248 5.06840128,12.7756514 C4.95610341,12.7205126 4.9439385,12.6868621 4.99697162,12.5780609 C5.01470346,12.5416823 5.04884384,12.4698662 5.07283558,12.4184707 C5.1239873,12.3088939 5.14272621,12.2919395 5.19696601,12.3061619 C5.22025478,12.3122697 5.24334678,12.3007461 5.25182759,12.2787851 C5.26328701,12.2491181 5.27619246,12.2461258 5.31112847,12.2650425 C5.38040091,12.3025499 5.38876008,12.2951355 5.37550189,12.207943 C5.36871395,12.1633017 5.37288281,12.1206833 5.38476581,12.1132371 C5.41393633,12.0949569 5.41255506,12.0557802 5.3827456,12.0558813 C5.35527617,12.0559746 5.30944562,12.0914749 5.23883878,12.167351 C5.21000991,12.1983291 5.17369764,12.2150854 5.15105246,12.2078586 C5.12785993,12.2004577 5.09036244,12.2189866 5.05718584,12.25424 C5.02680112,12.286528 4.98414094,12.3131882 4.96238799,12.3134838 C4.9377108,12.3138189 4.92746128,12.326491 4.93513501,12.3471777 C4.94217909,12.3661674 4.92691571,12.3914853 4.89941445,12.4064325 C4.87300325,12.420786 4.8512317,12.4525336 4.8510335,12.4769829 C4.85043928,12.5500637 4.80599966,12.555679 4.74223549,12.4907302 C4.68729164,12.4347634 4.6853741,12.4265137 4.71935456,12.39224 C4.74766863,12.3636801 4.75132591,12.34092 4.73482078,12.2959984 C4.72050687,12.2570425 4.72133327,12.2289659 4.73726779,12.212893 C4.77569758,12.1741276 4.76564518,12.1513401 4.70986312,12.150766 C4.66443575,12.1502984 4.66293213,12.1473702 4.69759589,12.1268659 C4.73991907,12.1018318 4.72994144,12.0347829 4.68391663,12.0349396 C4.62657442,12.0351358 4.55053623,12.1320751 4.56392142,12.1879184 C4.5722509,12.222673 4.56240063,12.2564973 4.5362234,12.2830282 C4.49746591,12.3223117 4.49526182,12.3217134 4.48827354,12.2700241 C4.48424206,12.2402249 4.4941968,12.2075388 4.51039497,12.1973896 C4.53073016,12.1846444 4.53280117,12.1693874 4.51708667,12.1480793 C4.50457081,12.1311093 4.49676758,12.0515104 4.49974549,11.9711932 C4.50601147,11.8021355 4.44727618,11.6505787 4.35991058,11.6103777 C4.33026139,11.5967348 4.3061176,11.5715126 4.30625784,11.5543293 C4.30660092,11.5120332 4.34448335,11.5145158 4.36057241,11.5578878 C4.37508487,11.597009 4.47941173,11.6052725 4.50173493,11.5690681 C4.50966123,11.5562129 4.50614992,11.5457282 4.49393063,11.5457695 C4.48171206,11.5458112 4.47690248,11.5222127 4.48324108,11.4933259 L4.49476776,11.4408061 L4.44863313,11.4934441 C4.42325904,11.522395 4.39526945,11.5461068 4.38643376,11.5461363 C4.36097703,11.5462236 4.3981479,11.4273447 4.43529265,11.3898764 C4.45380368,11.3712037 4.46900874,11.3486508 4.469081,11.3397598 C4.4691522,11.3308699 4.41752897,11.2583628 4.35435974,11.1786336 C4.24545906,11.0411871 4.12613248,10.9493218 4.09598888,10.9797278 C4.08840925,10.9873731 4.05854576,10.9965914 4.02962459,11.0002112 C4.00070414,11.0038303 3.9599107,11.0137754 3.93897342,11.0223114 C3.91803721,11.0308473 3.89443542,11.0270993 3.88652916,11.0139838 C3.87862146,11.0008672 3.85782478,10.9957402 3.84031331,11.0025891 C3.82280291,11.0094387 3.76454021,10.9855632 3.71084275,10.9495315 C3.62797191,10.8939258 3.58860482,10.8838039 3.450466,10.8825877 C3.3609564,10.8817992 3.28256637,10.8784141 3.27626533,10.8750639 C3.26996357,10.8717151 3.18867184,10.8651294 3.0956173,10.8604312 C3.00256169,10.8557298 2.8566751,10.831017 2.77142236,10.8055103 C2.58500848,10.7497372 2.4875336,10.7470668 2.43863284,10.7963932 C2.41127539,10.8239897 2.40214992,10.8254765 2.4020841,10.8023492 C2.40203545,10.7853981 2.38854508,10.7978149 2.37210471,10.8299415 C2.34794303,10.8771584 2.32697177,10.8874526 2.26270317,10.8836394 C2.0772588,10.8726393 2.02469934,10.8787297 1.9839914,10.9159323 C1.95617425,10.9413556 1.94103394,10.9452518 1.94118312,10.9269495 C1.94130905,10.9113751 1.93100479,10.9051545 1.91828359,10.9131256 C1.90556273,10.9210992 1.89490932,10.9578712 1.89460809,10.9948431 C1.89430723,11.031816 1.88365452,11.0685892 1.87093296,11.076561 C1.85821175,11.0845339 1.84764527,11.110626 1.84745101,11.1345472 C1.84715157,11.1713516 1.83059064,11.1774744 1.739747,11.1743575 C1.67099294,11.171998 1.6288447,11.1812192 1.62251719,11.200008 C1.61708191,11.2161425 1.6027612,11.2231595 1.59069432,11.2156023 C1.57862493,11.2080446 1.55531863,11.2131292 1.53890366,11.2268994 C1.51732064,11.2450058 1.4969114,11.2426083 1.46519478,11.2182381 C1.44107138,11.1997039 1.4067804,11.1842546 1.3889931,11.1839073 C1.32659446,11.1826883 1.19911407,11.0641734 1.21122245,11.0186371 C1.21752635,10.9949254 1.20831896,10.9634081 1.19076205,10.9485963 C1.17320407,10.9337852 1.15881933,10.9045854 1.15879572,10.8837056 C1.15877103,10.8628259 1.1477062,10.8300369 1.13420474,10.8108396 C1.11348462,10.781378 1.11162647,10.782294 1.12228096,10.816712 C1.13788849,10.8671231 1.12712023,10.8682403 1.08076057,10.8210184 C1.06103535,10.8009258 1.04510763,10.7586681 1.04536235,10.7271085 C1.04561921,10.6955496 1.03005819,10.6636288 1.01078337,10.6561741 C0.991507123,10.6487187 0.96570338,10.6233541 0.95344009,10.5998083 C0.921607198,10.5386842 0.996173248,10.423813 1.06161275,10.4331641 C1.09405346,10.4378018 1.13538818,10.4108695 1.18739456,10.3512148 C1.24207225,10.2884941 1.30260451,10.2503117 1.39319665,10.2213989 C1.5697599,10.1650506 1.58055176,10.1667615 1.56377761,10.2484633 C1.55115801,10.3099336 1.55673138,10.3188716 1.61545594,10.3313322 C1.65165802,10.3390134 1.69918037,10.3550988 1.72105889,10.3670772 C1.7961705,10.4082013 1.87585022,10.3920956 1.90419792,10.3300587 C1.92140388,10.2924034 1.94968718,10.2715913 1.98381217,10.2714742 C2.03750355,10.2712915 2.04898694,10.2619036 2.13228744,10.1500863 C2.16471384,10.106559 2.19896584,10.0878649 2.24418392,10.0890131 C2.28213898,10.089979 2.33016253,10.0696776 2.35918709,10.0403994 C2.42470888,9.97430465 2.44555601,9.97668366 2.52689032,10.0595316 C2.57353403,10.1070427 2.59069741,10.143111 2.58101779,10.1732777 C2.56900135,10.2107169 2.577983,10.2168453 2.63994662,10.2134755 C2.7211389,10.2090612 2.76851421,10.1329154 2.73351095,10.0630898 C2.7227545,10.0416317 2.70743853,9.98572781 2.69947611,9.93885742 C2.68693306,9.86502803 2.69315396,9.84714985 2.74601607,9.80509482 C2.79185485,9.76862796 2.8174486,9.76219004 2.84890192,9.77921989 C2.87192666,9.79168867 2.91733614,9.80179875 2.94980869,9.80168763 C3.01626814,9.80146006 3.02544298,9.82822783 2.97376609,9.8715792 C2.95465119,9.88761329 2.93884868,9.92081186 2.93864942,9.94534913 C2.93844979,9.96988746 2.92061885,10.0170153 2.89902618,10.05008 C2.86221162,10.1064468 2.86216977,10.1115567 2.89835969,10.1320561 C2.91958603,10.1440797 2.93678841,10.1743907 2.93658485,10.1994091 C2.93638165,10.2244303 2.94754128,10.2448631 2.96138653,10.2448157 C2.97845547,10.2447577 2.98162978,10.2061113 2.97124575,10.1247428 C2.95692504,10.0125376 2.9589034,10.005537 3.00174495,10.0167696 C3.03882495,10.0264929 3.05341218,10.0112121 3.07828256,9.93660698 C3.12396393,9.79957146 3.22785719,9.73898188 3.2967776,9.80918187 C3.3341227,9.8472225 3.44427801,9.83123257 3.46205994,9.78519199 C3.46884501,9.76762258 3.49141112,9.7530305 3.51220888,9.75276161 C3.54411332,9.75235098 3.54482632,9.74894594 3.51677519,9.73095985 C3.49848991,9.71923718 3.47534675,9.71477475 3.46534408,9.72104316 C3.45534176,9.72731014 3.45345607,9.71612737 3.46115555,9.69619356 C3.46885574,9.67625761 3.48405365,9.65991617 3.49492995,9.65987877 C3.53358798,9.65974736 3.67857377,9.5072789 3.67890611,9.46640697 C3.67923059,9.42636305 3.78802646,9.36435034 3.81311649,9.38990795 C3.81974415,9.39665821 3.81049383,9.4025662 3.7925595,9.40303488 C3.76632574,9.40372151 3.76699223,9.40941582 3.79596992,9.43217916 C3.86289051,9.48474599 3.91393025,9.58620465 3.89507364,9.62917781 C3.85267248,9.72580865 3.8577586,9.79411647 3.91012916,9.83133336 C3.98252081,9.88277906 3.98968582,9.87863218 3.98027236,9.79073351 C3.9732687,9.72533784 3.98511199,9.70170588 4.05672375,9.63818848 C4.13117854,9.57214998 4.15337366,9.56443779 4.23957694,9.57464295 C4.30347777,9.58220699 4.38028476,9.570953 4.45983855,9.54236608 C4.57135796,9.50229581 4.58564718,9.50165974 4.62403691,9.53508339 C4.64716361,9.55521771 4.69486018,9.57526655 4.73003016,9.57963638 C4.76519835,9.58400621 4.80534677,9.6028132 4.81924712,9.62142965 C4.84755904,9.65934528 4.97869528,9.66713831 5.00024824,9.63218398 C5.01526263,9.60783119 5.13533475,9.62376094 5.20372569,9.65917789 C5.26522208,9.69102562 5.60602446,9.68513152 5.64608166,9.65152874 C5.69185246,9.61313054 5.68893824,9.53566211 5.64035767,9.49942533 C5.60306266,9.47160339 5.60468612,9.46496852 5.66416052,9.40219724 C5.69926646,9.36514311 5.72808281,9.32328858 5.72819765,9.30918797 C5.72831177,9.29508522 5.75859561,9.22297526 5.79549352,9.148945 C5.89169052,8.95593689 5.86679761,8.78877698 5.74192055,8.78920221 C5.68697598,8.78938954 5.63989367,8.84869844 5.63932628,8.91843865 C5.63901861,8.95641126 5.48292543,9.11194572 5.36371297,9.19306635 C5.2526547,9.26863834 5.13408835,9.28882359 5.02914509,9.25002545 C4.97740237,9.23089615 4.87817237,9.2081467 4.80863413,9.19947222 C4.73909374,9.19079703 4.65487096,9.16406773 4.62147256,9.14007572 C4.58807272,9.11608227 4.54940109,9.09649 4.5355333,9.09653701 C4.52166586,9.09658402 4.51040892,9.08576843 4.51051696,9.0725019 C4.51067688,9.05293776 4.42213857,9.0542918 4.37243073,9.07461345 C4.3660814,9.07720934 4.35313016,9.07811607 4.34365159,9.07662919 C4.33417087,9.07514267 4.32540494,9.09754666 4.3241707,9.12641493 C4.32293719,9.15528321 4.3171996,9.16700944 4.31141945,9.15247149 C4.29790046,9.11846591 4.18803743,9.16649019 4.18744607,9.2066641 C4.18722569,9.2216807 4.15592263,9.2409902 4.11788314,9.24957172 C4.0798458,9.25815574 4.04864505,9.2748405 4.04854918,9.28665007 C4.04845294,9.29845928 4.03284076,9.30817404 4.01385608,9.30823886 C3.97456232,9.30837206 3.96863227,9.23345857 4.00287103,9.16947713 C4.01538367,9.14609731 4.05183653,9.12022203 4.08387764,9.11197991 C4.11591981,9.10373529 4.14226698,9.08082594 4.14242761,9.06107126 C4.14258788,9.04131445 4.13340159,9.03098962 4.12201407,9.03812665 C4.07866809,9.06529044 4.07946766,8.98433719 4.12301005,8.93723033 L4.1686399,8.88786697 L4.10047721,8.88809917 C4.05504555,8.88825445 4.00850772,8.91234689 3.96092563,8.96034446 C3.89129402,9.03058184 3.86099659,9.02677507 3.91892801,8.95506541 C3.96245859,8.901183 4.10500595,8.82469752 4.14434049,8.83411668 C4.17578308,8.84164724 4.26046163,8.69464695 4.260975,8.63164168 C4.2610741,8.61935168 4.28195807,8.59799046 4.3073826,8.58417298 C4.33280642,8.57035585 4.35372187,8.54535062 4.35385817,8.52860781 C4.35399412,8.51186429 4.39304174,8.47011661 4.44063171,8.4358336 C4.48821916,8.40155023 4.51899813,8.37352886 4.50902801,8.37356305 C4.45705777,8.37374005 4.54643142,8.29128283 4.60156488,8.28818655 C4.71382412,8.28188005 4.91583514,8.1968312 4.93286043,8.14870578 C4.94159381,8.12402427 4.95579539,8.10905361 4.96442251,8.11543848 C4.97304856,8.12182405 4.9875925,8.11502892 4.9967423,8.10033818 C5.02092079,8.06151832 5.26259656,7.88117522 5.29056791,7.88107977 C5.30362361,7.88103418 5.34990814,7.83626858 5.39342441,7.78159875 C5.46951913,7.68599643 5.47745723,7.6821829 5.60123027,7.68176051 C5.69783761,7.68143109 5.7481225,7.6681763 5.80293506,7.62859216 C5.84309242,7.59959034 5.89247328,7.57580631 5.91266858,7.57573793 C5.93286353,7.57566848 5.9494724,7.56511608 5.94957651,7.55228724 C5.94985591,7.51791377 5.85033363,7.52426872 5.79953358,7.56186596 C5.749683,7.59876232 5.69792168,7.5865179 5.65675046,7.52809401 C5.63498892,7.49721319 5.60057666,7.48988955 5.50358116,7.49550693 C5.37167862,7.50314184 5.18353789,7.4749659 5.11665844,7.43755991 C5.06942158,7.41114258 4.98429119,7.40829525 4.98401251,7.43312705 C4.98390482,7.44274778 4.9545057,7.48514827 4.91868032,7.52734825 L4.85354312,7.60407698 L4.76307904,7.56772444 C4.71332434,7.54773116 4.63652844,7.51209767 4.59242367,7.48854085 C4.54282674,7.46205266 4.48147273,7.44939512 4.4316132,7.45536971 C4.35821198,7.46416456 4.35564907,7.46257939 4.40299254,7.43766853 C4.43159174,7.42262059 4.45513737,7.39220382 4.45531767,7.37007726 C4.45582997,7.30708517 4.51078778,7.27580762 4.65916217,7.25406925 C4.78530565,7.23558777 4.97100045,7.16219429 4.89642545,7.16029393 C4.86866339,7.15958664 4.86871133,7.15369182 4.8967646,7.1185409 C4.97518325,7.02027467 4.98325801,6.96981974 4.90608111,7.06031645 C4.85939339,7.11506249 4.81325732,7.15488453 4.80355588,7.14880987 C4.79385479,7.14273378 4.75401296,7.14712391 4.71501828,7.15856666 C4.66463645,7.17334856 4.6320834,7.1703431 4.60252258,7.14817844 C4.56363952,7.11902312 4.56544723,7.11496705 4.63021094,7.08602862 C4.66831804,7.06900125 4.70103601,7.03697652 4.70291706,7.01486171 C4.70794522,6.95576151 4.63236638,7.00249835 4.5803922,7.09063136 C4.53281548,7.1713061 4.51520992,7.17643914 4.47976769,7.11996332 C4.45565503,7.08153984 4.45489231,7.08153129 4.4663224,7.11981268 C4.48075365,7.16814252 4.36979805,7.28208991 4.31804532,7.2720906 C4.29112146,7.26688919 4.28388813,7.22771639 4.28498249,7.09304918 C4.28595843,6.97297015 4.27738997,6.91761154 4.25674104,6.91059917 C4.23834557,6.90435356 4.23485393,6.89030565 4.2475408,6.8735778 C4.25979693,6.8574155 4.25598583,6.82330807 4.23802753,6.78841072 C4.20416727,6.72261688 4.1992661,6.74171947 4.20482732,6.91778356 C4.20755373,7.00407177 4.19668172,7.05010665 4.16398129,7.09073856 C4.10281045,7.16674468 4.0660399,7.13432534 4.06708739,7.00531327 C4.06821716,6.86646286 4.04454346,6.8910945 4.02412456,7.05001584 C4.0097044,7.16224593 4.0027823,7.17406939 3.95139555,7.17424639 C3.90510064,7.1744038 3.88961653,7.1572087 3.86762747,7.08123249 C3.82635465,6.93862624 3.832377,6.82719889 3.88499012,6.7599253 C3.94967084,6.67722412 3.94499577,6.63974903 3.8757355,6.68573584 C3.82298,6.7207646 3.81802231,6.72010361 3.79447525,6.6748882 C3.75628694,6.60156203 3.71896617,6.61554618 3.73592957,6.69682352 C3.74479102,6.73928134 3.74119135,6.76678062 3.72676546,6.76682976 C3.6744575,6.76700783 3.58606981,6.71097684 3.58365393,6.67610655 C3.58223974,6.65572009 3.57240199,6.69653077 3.56178972,6.76679735 C3.54849039,6.85485486 3.52671132,6.90747654 3.4917009,6.93613932 C3.41801491,6.99646784 3.39989741,6.98813918 3.40066014,6.89428373 C3.40155236,6.78435216 3.35365438,6.79941898 3.31371024,6.92163378 C3.27771064,7.03177582 3.18743402,7.11853948 3.10855137,7.11880801 C3.07686873,7.11891627 3.0571038,7.10901775 3.06462941,7.09681251 C3.07215646,7.08460584 3.04086269,7.06761445 2.9950901,7.05905358 C2.91649186,7.0443518 2.91240493,7.03911478 2.92156295,6.96482632 C2.92689449,6.92156291 2.92853191,6.88617515 2.92520091,6.88618619 C2.92187062,6.88619759 2.89406992,6.92324816 2.8634201,6.96852126 C2.81325256,7.04262952 2.80998809,7.06135709 2.83067745,7.15634648 C2.85207623,7.25460382 2.84954801,7.26600276 2.79388365,7.32215306 L2.73410803,7.38244704 L2.52027482,7.35752657 C2.34909677,7.33757388 2.29926873,7.33869429 2.27048386,7.36313932 C2.22249966,7.40389088 2.00361431,7.47244622 1.92058749,7.4727297 C1.87830116,7.47287358 1.8540962,7.48508986 1.85392234,7.50637202 C1.85377387,7.52475093 1.83548036,7.54594726 1.81327021,7.55347425 C1.7910597,7.5610009 1.75708353,7.60073283 1.73776649,7.64176503 C1.69541219,7.73172824 1.62999666,7.75420525 1.38948286,7.76143985 C1.20194243,7.76708003 1.13504832,7.73941728 1.15497746,7.66446462 C1.1697339,7.60896784 0.992821494,7.45255265 0.809695695,7.35918867 C0.69718067,7.30182322 0.65566708,7.29224344 0.568528288,7.30353482 C0.510636934,7.31103654 0.426997646,7.32095643 0.382663203,7.32557983 C0.338329475,7.33020109 0.250217963,7.34151563 0.186862703,7.35072111 C0.0882702086,7.36504787 0.0656783386,7.36069941 0.0300998103,7.32054153 C-0.0101233775,7.27513915 -0.0101072788,7.27317397 0.0305945776,7.25973863 C0.0537291533,7.25210336 0.0975910095,7.20902016 0.12806517,7.16399493 C0.158537543,7.11897219 0.201699641,7.08207334 0.223979911,7.08199784 C0.301232301,7.08173394 0.364364325,7.00465085 0.377349194,6.8947378 C0.387560076,6.80829788 0.420347086,6.73899785 0.520015333,6.59318172 C0.534994655,6.57126635 0.781330825,6.71241671 0.860140139,6.78807381 C0.906856835,6.83292097 0.949279824,6.86960151 0.954412811,6.8695837 C0.959545798,6.86956661 0.989421445,6.89570543 1.02080143,6.92766891 C1.06429874,6.97197403 1.10181877,6.98570461 1.17867907,6.98544249 C1.25534761,6.98518073 1.28194055,6.99486878 1.2896919,7.02588208 C1.29807504,7.0594261 1.30042724,7.0581732 1.30294258,7.01881842 C1.30472024,6.99101108 1.26424734,6.9283502 1.20630662,6.86920762 C1.05548379,6.71525549 0.948308892,6.48601664 1.06045866,6.55725192 C1.07703604,6.56778224 1.10874444,6.57331272 1.13092526,6.56954477 C1.15310357,6.5657754 1.17115345,6.57455494 1.17103539,6.58905442 C1.17090875,6.60471742 1.18936933,6.60940278 1.21652215,6.60059831 C1.24698236,6.59072044 1.29617289,6.60947508 1.36403185,6.65683658 C1.4200275,6.69591572 1.48140082,6.72783895 1.50041592,6.72777378 C1.5194328,6.72770967 1.54139288,6.74862643 1.54921901,6.77425669 C1.55704406,6.7998873 1.57310521,6.82082435 1.58490844,6.82078518 C1.61429468,6.82068439 1.61223154,6.80630706 1.57107856,6.72448341 C1.54867666,6.67994039 1.52338092,6.65866999 1.5025134,6.66683269 C1.4843265,6.67394515 1.46952247,6.67040477 1.46961513,6.65896166 C1.46998969,6.61293034 1.35020878,6.49747826 1.25533223,6.45242383 C1.12925779,6.39255223 1.06971649,6.31630892 1.0286161,6.1621082 C0.976023017,5.96477157 0.969348845,5.87262559 1.00546114,5.8423324 C1.02323806,5.82741695 1.03562549,5.80310903 1.03298565,5.78831217 C1.03034689,5.77351637 1.05667331,5.76025376 1.09148876,5.75883988 C1.15871093,5.75611044 1.17324128,5.7907243 1.12535116,5.83950715 C1.10678362,5.85842134 1.12025037,5.85652241 1.1627746,5.83422917 C1.2435519,5.79188033 1.28390352,5.80440395 1.30136276,5.87724578 C1.31055191,5.91558343 1.33371797,5.9344531 1.37772149,5.93944083 C1.42285371,5.94455605 1.43888697,5.9581538 1.43388134,5.98707015 C1.42882455,6.01628281 1.43750641,6.02338173 1.46509425,6.01259107 C1.49609788,6.00046454 1.5001476,6.00750327 1.48654884,6.04987918 C1.47116919,6.09780659 1.47398289,6.09983373 1.52068063,6.07445527 C1.55187816,6.05749985 1.57975184,6.05512084 1.59269735,6.06830795 C1.61666871,6.09272235 1.59443745,6.16766077 1.56319126,6.16776654 C1.55188925,6.16780607 1.54246541,6.189449 1.54225112,6.21586454 C1.54203468,6.2424578 1.55235253,6.25731734 1.56536674,6.24916069 C1.57829616,6.24105959 1.58371105,6.2258667 1.57739999,6.21539942 C1.55732024,6.18209188 1.62125076,6.15111847 1.67940363,6.16598015 L1.73549801,6.18031367 L1.68028119,6.23224658 C1.60715257,6.3010245 1.6343612,6.29806641 1.73947224,6.22580972 C1.82499258,6.16702292 1.87822353,6.1675728 1.85526998,6.22700777 C1.84668829,6.24922586 1.85864928,6.25751286 1.89375307,6.25367297 C1.93025817,6.24968101 1.94364873,6.25990255 1.94101856,6.28975163 C1.93842237,6.31923068 1.94532693,6.32470881 1.96464969,6.30849915 C1.97966407,6.29590251 2.0055687,6.29412502 2.0222162,6.30454956 C2.04654638,6.31978733 2.04410474,6.33632749 2.00975758,6.38891676 L1.96703659,6.4543306 L2.03015108,6.41242336 C2.09315181,6.37059412 2.09326486,6.37062475 2.09278619,6.42956647 C2.09248425,6.4668325 2.06881806,6.50635182 2.02863566,6.53669024 C1.99361629,6.56313035 1.97663679,6.58505712 1.99090563,6.58541362 C2.00517267,6.58577153 2.02986596,6.57027735 2.04577865,6.55097853 C2.08107491,6.50817454 2.13820068,6.50466657 2.13786941,6.54532447 C2.13761719,6.57634667 2.06586198,6.6573074 1.986911,6.71565187 C1.94405334,6.74732438 1.9455677,6.74805874 2.00728053,6.72552903 C2.08833794,6.69593459 2.10524589,6.70746139 2.05505366,6.7580926 C2.03053888,6.78281862 2.02724509,6.79595089 2.04557187,6.79588893 C2.06101841,6.79583586 2.10933926,6.75874291 2.15295391,6.71345913 C2.19656713,6.66817605 2.24113804,6.63669051 2.25200039,6.64349277 C2.26286201,6.65029538 2.27556748,6.63207495 2.28023539,6.60300475 C2.28811554,6.55391953 2.2915578,6.55557451 2.32850579,6.62621148 C2.36304721,6.69225247 2.37448195,6.69890586 2.41529507,6.67672517 C2.45915549,6.65288878 2.45991571,6.64744769 2.42667114,6.59547882 C2.37733214,6.51835299 2.37965787,6.51485357 2.48047342,6.51450954 C2.52954983,6.51434216 2.58167641,6.49968454 2.5963105,6.48193742 C2.633471,6.43687444 2.76010353,6.41442842 2.79779385,6.44622452 C2.83090391,6.47415579 2.83938221,6.44914557 2.81173963,6.40507942 C2.79531071,6.37888931 2.77213499,6.37920485 2.54033024,6.40877757 C2.4762416,6.41695416 2.39625171,6.4130872 2.36257462,6.40018286 C2.29624146,6.37476665 2.20728136,6.28180866 2.18190728,6.21139927 C2.16877931,6.17497016 2.1797386,6.16478031 2.24577197,6.15201772 C2.30000891,6.14153548 2.34261614,6.14799299 2.3790869,6.17222113 C2.40856831,6.19180664 2.47049936,6.2237694 2.51671163,6.24324949 C2.59730826,6.27722622 2.59980035,6.27688077 2.57786709,6.2347684 C2.56529256,6.21062467 2.53433615,6.18427323 2.50907547,6.17621166 C2.44232625,6.15490992 2.45268345,6.13138017 2.54356537,6.09785966 C2.62047074,6.06949425 2.69050518,6.07741443 2.81434083,6.12847835 C2.84426871,6.14082177 2.85456724,6.13372001 2.85483662,6.10054886 C2.85503517,6.07608425 2.84244562,6.043078 2.82686098,6.02720239 C2.79207308,5.99176798 2.8389894,5.95440508 2.91931199,5.95357634 C2.97948436,5.95295737 2.98389827,5.93921005 2.9387063,5.89317695 C2.89492959,5.84858549 2.85104985,5.85152115 2.78475496,5.90347577 C2.71490476,5.95821577 2.55625581,5.98430331 2.29076217,5.98470361 C2.12442161,5.9849554 2.06321964,5.97511207 1.98717537,5.93588478 C1.93478978,5.90886131 1.87751161,5.88679992 1.85988888,5.88685975 C1.81240767,5.88702251 1.61409327,5.61786795 1.58869915,5.51879898 C1.57660758,5.47162516 1.56548515,5.40176529 1.56398046,5.36355478 C1.56162826,5.3037715 1.57089146,5.29222939 1.63038839,5.28079697 C1.69403665,5.26856823 1.69542543,5.26638154 1.64787089,5.25327384 C1.61945808,5.2454427 1.59648413,5.22493123 1.59681863,5.20769374 C1.59732341,5.18163398 1.60066264,5.18158484 1.61663007,5.20739779 C1.63209164,5.23239483 1.6386177,5.23123667 1.65012113,5.20145241 C1.67124444,5.14675444 1.79100246,5.1551757 1.89023282,5.21833553 C1.93719851,5.24823127 1.98736784,5.26859494 2.00171753,5.26359012 C2.01606864,5.25858494 2.0339028,5.27991197 2.04135114,5.31098261 C2.04879877,5.34205502 2.07571368,5.37293797 2.10116254,5.37961059 C2.13207709,5.38771596 2.14266611,5.40408767 2.13306913,5.42893798 C2.1106987,5.48686079 2.15586849,5.47251551 2.18188188,5.41343561 C2.19737493,5.37824587 2.22542712,5.36045637 2.26676434,5.35960484 C2.30072262,5.35890503 2.32402677,5.36559795 2.31855178,5.37447863 C2.31307607,5.38335753 2.32402141,5.39658881 2.34287408,5.40388004 C2.36172676,5.41117128 2.377037,5.43111221 2.37689819,5.448193 C2.3767601,5.46527307 2.38861341,5.49143682 2.40323891,5.50633518 C2.42348109,5.52695314 2.43685268,5.52384405 2.45923026,5.49331652 C2.48694761,5.45550239 2.48950194,5.45553836 2.5039085,5.49397538 C2.52368631,5.54674414 2.59967406,5.54648487 2.61402267,5.49359965 C2.62341109,5.4589979 2.6275896,5.46076933 2.64131179,5.50516847 C2.65920999,5.56307917 2.68791257,5.5733025 2.7061789,5.52827121 C2.71365729,5.50983461 2.71857813,5.51319549 2.71952831,5.53739264 C2.72110098,5.57743086 2.780648,5.61454945 2.8300886,5.60631017 C2.86698865,5.60016321 2.86673214,5.63165872 2.82954196,5.67367173 C2.80549154,5.70083873 2.80647106,5.70199369 2.83523911,5.68040418 C2.85434042,5.66607066 2.90931254,5.64676792 2.9573987,5.63750724 C3.07051546,5.61572827 3.05582162,5.57336126 2.92759496,5.55158051 C2.81933,5.53318842 2.68634205,5.47701141 2.6642242,5.44032339 C2.65671397,5.42786387 2.61578137,5.41778656 2.57326536,5.41793222 C2.46639026,5.41829655 2.42333226,5.39770103 2.42374904,5.34641844 C2.4239755,5.31857193 2.40325931,5.2983849 2.36667336,5.29079665 C2.33508516,5.28424618 2.28313316,5.2734598 2.25122586,5.26682707 C2.21931641,5.26019576 2.17551501,5.23468445 2.15388692,5.21013579 C2.13226026,5.18558713 2.04605018,5.09585434 1.96230929,5.0107307 C1.87856948,4.92560635 1.79787411,4.8255872 1.78298673,4.78846933 C1.76809827,4.75135038 1.74849647,4.72100556 1.73942645,4.72103619 C1.73035536,4.72106717 1.72186382,4.68415799 1.72055732,4.63901523 C1.71839115,4.56423103 1.72219045,4.55910903 1.76331981,4.58137912 C1.78814762,4.59482159 1.80837727,4.61594704 1.8082771,4.6283243 C1.80817514,4.64070155 1.82025419,4.65078634 1.8351176,4.65073648 C1.84998101,4.65068484 1.83812806,4.62459018 1.80878009,4.59274494 C1.76290983,4.54297451 1.75917994,4.5266142 1.78221041,4.47621198 C1.81268564,4.40951783 1.94185175,4.38641153 1.91644404,4.45219966 C1.90900178,4.47146821 1.91294382,4.48719816 1.92520317,4.48715613 C1.93746288,4.48711446 1.94757825,4.47658486 1.94768164,4.46375637 C1.94809197,4.41337481 2.10819303,4.47113272 2.15586527,4.53885754 C2.16304244,4.54905096 2.19064781,4.56156782 2.21721177,4.56667093 C2.2437768,4.57177334 2.29202538,4.59356192 2.3244321,4.61509088 C2.36172246,4.6398632 2.38343069,4.64438403 2.38356842,4.62740261 C2.38372762,4.60780214 2.39613222,4.60725903 2.42960897,4.62538472 C2.46800549,4.64617505 2.47548925,4.64296553 2.47579191,4.60557912 C2.4761654,4.55968634 2.4409321,4.518449 2.3898412,4.50498196 C2.34926313,4.49428675 2.0647594,4.21530382 2.06499229,4.1864384 C2.06520229,4.16072944 2.19890967,4.16233883 2.23999003,4.18854389 C2.25682428,4.19928326 2.26181774,4.18541236 2.25490138,4.14711851 C2.24721227,4.10452927 2.25448388,4.08951374 2.28284983,4.08941794 C2.33951231,4.0892242 2.44886269,4.15174013 2.46420441,4.19309891 C2.47155007,4.21290202 2.5036409,4.24110609 2.5355178,4.25577475 C2.56739398,4.2704434 2.59336622,4.29579551 2.59323386,4.31211523 C2.59310149,4.32843459 2.61358801,4.3483595 2.63875961,4.35639257 C2.66393228,4.36442778 2.69933945,4.38608673 2.71744156,4.40452547 C2.73554404,4.42296457 2.75615755,4.42864213 2.76324671,4.41714276 C2.7703373,4.4056441 2.71901995,4.35148034 2.64921197,4.29677881 C2.57939969,4.242078 2.50736686,4.16766311 2.48913667,4.13141172 C2.47025001,4.09386006 2.43702369,4.06556695 2.41191147,4.06565207 C2.38767109,4.06573505 2.3615232,4.05532796 2.35380404,4.04252654 C2.3460856,4.02972334 2.3084543,4.01935578 2.27017691,4.01948684 C2.18140249,4.01978956 2.19382462,3.96721275 2.2874512,3.94638254 C2.32444284,3.93815288 2.34026072,3.930227 2.32260436,3.92876897 C2.30102635,3.92698863 2.30895837,3.9088494 2.34679752,3.87344598 C2.37775929,3.84447692 2.41315179,3.81653176 2.42544942,3.81135029 C2.43774491,3.80616633 2.45892474,3.78664635 2.47251457,3.76797256 C2.49375665,3.73878056 2.5269887,3.74299475 2.70944157,3.79801075 C2.85682893,3.84245191 2.92920662,3.87648776 2.94636071,3.90942742 C2.97525648,3.96491067 3.05686697,4.03823756 3.09083419,4.03923617 C3.12660519,4.04028749 3.1962851,4.13200789 3.18061783,4.15741805 C3.17306109,4.16967387 3.17784527,4.17966321 3.19124871,4.17961727 C3.23141072,4.17948015 3.21863835,4.23351107 3.15697596,4.3245947 C3.12498924,4.37184722 3.10733145,4.41584107 3.11774124,4.42235949 C3.14264166,4.43795303 3.28245081,4.33848519 3.28323858,4.30461458 C3.28357451,4.29014893 3.30001666,4.26475123 3.31977659,4.24817367 C3.3500708,4.22275924 3.35761681,4.22569097 3.36791462,4.26686385 C3.37463137,4.29372172 3.39459342,4.32129079 3.41227554,4.32812902 C3.44988251,4.34267374 3.45604402,4.54085762 3.41959939,4.56369646 C3.3772111,4.59025873 3.39544165,4.61625902 3.45630804,4.61605068 C3.48938841,4.61593814 3.5253576,4.63024851 3.53623676,4.64785033 C3.54711663,4.66545214 3.55658768,4.66935543 3.55728422,4.65652516 C3.55797933,4.64369383 3.58426568,4.61425075 3.61569682,4.59109388 C3.67131467,4.55011866 3.67283368,4.55025043 3.67246233,4.59599934 C3.67220046,4.62820107 3.6612426,4.63881615 3.63767193,4.62969935 C3.61557089,4.62115023 3.60314876,4.63029125 3.60294663,4.65525019 C3.60276346,4.67782299 3.61340901,4.68735541 3.62834576,4.677995 C3.64248938,4.66913249 3.66210477,4.67522317 3.67193716,4.69153042 C3.6948442,4.72953117 3.77233235,4.70068569 3.75716593,4.65980342 C3.75092535,4.64297692 3.765597,4.61668674 3.78977156,4.60138095 C3.8139454,4.58607374 3.83381443,4.56239264 3.83392534,4.54875678 C3.83403695,4.53511987 3.84978758,4.50816477 3.86892932,4.48885812 C3.89986498,4.45765179 3.90366893,4.46152659 3.90316307,4.52372805 C3.90263432,4.58873481 3.95116516,4.66684429 3.99199616,4.66670575 C4.01229057,4.66663595 4.07227153,4.78560134 4.06569574,4.81288159 C4.06328845,4.82286808 4.07515678,4.83639033 4.09206759,4.84293153 C4.11755079,4.85278875 4.11762735,4.88853193 4.09251049,5.05171162 C4.07584402,5.16000139 4.04478279,5.28299293 4.02348848,5.32502837 C4.00219381,5.36706417 3.9806598,5.45395176 3.9756345,5.51811163 L3.96649972,5.63476497 L4.0030728,5.51801797 C4.04753496,5.37608695 4.065973,5.32637387 4.10399209,5.24590888 C4.12008938,5.21183991 4.12879199,5.17005127 4.12333274,5.15304706 C4.11787205,5.13604142 4.13248182,5.10148775 4.15579849,5.07626384 C4.18325646,5.04655971 4.19848192,4.99496657 4.19901031,4.92983408 C4.19999949,4.80823184 4.23279187,4.79926105 4.26826844,4.91088642 C4.28256124,4.95585609 4.30264493,4.98739042 4.3128991,4.98096496 C4.3460689,4.96017891 4.38776423,5.03637129 4.37358626,5.09185775 C4.36601056,5.12151202 4.36950863,5.17673956 4.38136409,5.21458966 C4.40172217,5.27959287 4.40228777,5.27866192 4.39156209,5.19779735 C4.38527572,5.15039311 4.39084695,5.10551995 4.40404754,5.09724862 C4.43560068,5.07747329 4.44169029,5.16564904 4.41851171,5.30667795 C4.40595113,5.38309363 4.27233998,5.65443738 4.22963366,5.69026176 C4.20786211,5.70852243 4.17838607,5.74536074 4.16413083,5.77212138 C4.13997166,5.81747639 4.14122128,5.81844046 4.18253059,5.78633987 C4.25618581,5.72910477 4.308038,5.6718597 4.30823548,5.64756069 C4.30833815,5.63492309 4.33118188,5.60843882 4.35900011,5.588708 C4.41221782,5.55096154 4.49457637,5.36448858 4.49529401,5.28011675 C4.49552512,5.25282225 4.5114836,5.2172632 4.53075627,5.20109556 C4.55310452,5.18234911 4.55821425,5.16228673 4.54486519,5.14571166 C4.53335318,5.13141696 4.51737609,5.06726207 4.50935964,5.00314815 C4.48614887,4.81749858 4.45601314,4.74202025 4.37689473,4.67136655 C4.31936756,4.6199942 4.30304918,4.58672014 4.30357651,4.52186544 C4.30438538,4.42239831 4.24252837,4.31598041 4.18402276,4.31617949 C4.16096224,4.31625819 4.12374236,4.29564131 4.10130933,4.27036256 C4.07887773,4.24508559 4.05347932,4.22881716 4.04486829,4.23421267 C4.03625762,4.23961031 3.99384751,4.21300922 3.95062567,4.17509929 C3.90740347,4.13719078 3.84619829,4.10041836 3.81461474,4.09338568 C3.71497225,4.07119502 3.63101207,4.03331714 3.63119595,4.01063856 C3.63129326,3.99860819 3.62214596,3.99454892 3.6108647,4.00161828 C3.59958593,4.00868585 3.57768774,3.99888526 3.5622022,3.97983574 C3.54671666,3.96078801 3.51978136,3.94524966 3.5023468,3.94530949 C3.48491118,3.94536932 3.47073285,3.93469548 3.47084054,3.92159277 C3.47094607,3.90848828 3.44524286,3.88589945 3.41372013,3.87139355 C3.38219634,3.85688872 3.35651494,3.83148319 3.35664874,3.8149359 C3.35678361,3.79838933 3.34401697,3.77650138 3.32828101,3.76629586 C3.25323736,3.71763373 3.23616056,3.66885658 3.26766575,3.59315745 C3.29036566,3.53861618 3.33009086,3.50557254 3.42348669,3.46354208 C3.61205779,3.37867558 3.73117401,3.36821648 3.82683331,3.42812014 C3.90453432,3.47677905 4.03710907,3.49251719 4.08672353,3.45897282 C4.10073622,3.44949987 4.11786812,3.41210813 4.124797,3.37587882 C4.13513954,3.32179804 4.12737495,3.30616959 4.08141453,3.28855958 C4.05062663,3.27676283 4.00219989,3.26718982 3.97380282,3.26728704 C3.94540432,3.26738391 3.90259568,3.25293571 3.87867262,3.23517862 C3.839791,3.20631889 3.83850596,3.19581172 3.86655422,3.13609042 C3.91015421,3.04325779 3.93822966,2.91753823 3.91534264,2.91761551 C3.90487168,2.9176529 3.89015423,2.93684666 3.8826372,2.96027064 C3.85886369,3.03435254 3.7406905,3.12937363 3.65432051,3.14385531 L3.57106151,3.15781703 L3.58580686,3.07010996 C3.59729348,3.00179288 3.59353854,2.98478974 3.56882414,2.9932021 C3.55137206,2.99914143 3.53101147,3.02948412 3.52357708,3.06062954 C3.50662227,3.13165328 3.3563976,3.21830546 3.24513506,3.22124147 C3.19177388,3.22265036 3.13632631,3.20320232 3.08579207,3.16535365 C3.04316481,3.13342792 2.99735894,3.10696715 2.98400094,3.10655046 C2.94148566,3.10522741 2.83819842,3.00465197 2.83057406,2.95714801 C2.82062434,2.89516985 2.88663052,2.88413631 2.98505702,2.93132829 C3.05749553,2.96605896 3.06780336,2.965971 3.12173515,2.93016264 C3.20519771,2.87474563 3.19491778,2.81936245 3.07810762,2.69512514 C2.941691,2.5500309 2.93722021,2.43776021 3.07104529,2.51782204 C3.12209862,2.54836452 3.14241843,2.55070186 3.16437708,2.52855108 C3.17981504,2.51297855 3.22059417,2.50014116 3.25499785,2.50002435 C3.36018259,2.49966607 3.39310626,2.47805093 3.36644427,2.4268563 C3.3536347,2.40226134 3.34992663,2.37115153 3.3582028,2.35772651 C3.38208293,2.31899782 3.51176849,2.34004563 3.58679854,2.39482658 C3.62454324,2.42238391 3.69415303,2.45770186 3.74148864,2.47331036 C3.80130897,2.49303655 3.82743934,2.51536041 3.82718534,2.54653041 C3.82662832,2.61505155 3.92165585,2.60246809 3.98906763,2.52509226 C4.02065761,2.48883482 4.04671034,2.43378498 4.04696148,2.40275993 C4.04770524,2.31119196 4.11217597,2.32391752 4.23004793,2.43889807 C4.35080049,2.55668856 4.40352451,2.55314711 4.36213077,2.43002416 C4.33178218,2.33974826 4.34935554,2.32505717 4.42999188,2.37329869 C4.47560421,2.40058713 4.49927719,2.43732073 4.50833684,2.4948728 C4.53064287,2.63654597 4.58113131,2.72201898 4.6710466,2.7703214 C4.71829598,2.79570271 4.75396431,2.82899922 4.75031347,2.84431427 C4.74666121,2.8596286 4.76431614,2.87757124 4.78954605,2.88418688 C4.81977659,2.89211453 4.83356067,2.91325209 4.8299728,2.9461832 C4.82570843,2.98530935 4.83577085,2.99490836 4.87634892,2.9904178 C4.93927631,2.98345671 4.94050482,3.0012804 4.88234516,3.07739158 C4.84125908,3.13116003 4.84066235,3.13885405 4.8746006,3.17709875 C4.90279375,3.20887063 4.90500607,3.22496669 4.88408239,3.24607362 C4.85627453,3.27412349 4.84475536,3.3809392 4.86954739,3.38085515 C4.87704224,3.38082915 4.91052722,3.35904947 4.94395424,3.33245407 C4.99757943,3.28979325 5.0077295,3.28828963 5.03017934,3.31968613 C5.04954861,3.34677335 5.06208057,3.3487599 5.08265974,3.32800269 C5.09752851,3.31300318 5.10980504,3.28708659 5.10993991,3.27040789 C5.1100755,3.25373097 5.12054217,3.24005131 5.13319863,3.24000858 C5.14585508,3.23996406 5.15605058,3.25969843 5.15585453,3.28385962 C5.15546566,3.33168303 5.21399345,3.35552262 5.33205824,3.35563409 C5.38772869,3.35568716 5.409067,3.36827632 5.42102656,3.40812934 C5.42967802,3.43696449 5.44481224,3.46585627 5.45465607,3.47233479 C5.46450062,3.47881261 5.47588456,3.51594224 5.47995181,3.55484651 C5.49235391,3.67343581 5.56497166,3.74280386 5.71091299,3.77547107 C5.813728,3.79848513 5.83624832,3.8112 5.81653669,3.83510405 C5.78682775,3.87113286 5.8072166,3.91412453 5.85393902,3.91396463 C5.89664034,3.91381968 5.89558605,3.94564462 5.84997158,4.03380754 C5.81638643,4.09871744 5.81643402,4.10716613 5.85052681,4.1324698 C5.88046757,4.15469324 5.88302226,4.17266116 5.86349665,4.22367808 C5.83524769,4.29748896 5.86871765,4.30963258 5.94322896,4.25260938 C6.00516539,4.20520906 6.02879652,4.20824978 6.00107417,4.26005376 C5.9708168,4.31659083 5.99500745,4.47372969 6.03643411,4.48975132 C6.05413626,4.49659916 6.08188509,4.48397082 6.09810115,4.4616897 C6.12541102,4.42416084 6.13027677,4.42539521 6.16422861,4.47846812 C6.19833571,4.53178819 6.19778442,4.54084765 6.15625652,4.60927834 C6.10158277,4.69937296 6.13503913,4.70644873 6.20326157,4.6192196 C6.2359899,4.57737113 6.2477917,4.53962645 6.23793857,4.50830901 C6.22972428,4.48219903 6.22170211,4.43585466 6.22011156,4.40532108 C6.21765633,4.35815759 6.229344,4.34855074 6.29782974,4.34144684 C6.37027863,4.33393266 6.38244461,4.34137739 6.41804102,4.41501269 C6.47225865,4.52717084 6.46814096,4.54267322 6.38836858,4.52674739 C6.34446236,4.5179821 6.31936875,4.52251112 6.31923173,4.53922829 C6.31911547,4.55366082 6.329375,4.56543371 6.34203146,4.56539097 C6.35468898,4.56534788 6.36492598,4.57977186 6.3647836,4.59744491 C6.36419868,4.66935543 6.42927722,4.69151547 6.54883776,4.6601154 C6.65751342,4.63157406 6.66488878,4.63285367 6.74376249,4.69394647 C6.85133091,4.77726626 6.84084599,4.82770053 6.71420702,4.83612678 C6.66072779,4.83968532 6.58528311,4.85924519 6.54654995,4.87959177 C6.50781822,4.89994013 6.46345229,4.91433883 6.44796282,4.91158765 C6.41152247,4.90511732 6.22361464,4.96543302 6.22392946,4.98349818 C6.22495441,5.04238968 6.30913283,5.06193459 6.36401479,5.01602328 C6.3816708,5.00125242 6.42200739,4.98881961 6.45365103,4.98839295 C6.48529539,4.98796558 6.55005875,4.98244151 6.59757144,4.97611613 C6.70625891,4.96164691 6.71829038,5.02073465 6.61419498,5.0577667 C6.5761326,5.07130674 6.55036463,5.09130609 6.5569372,5.1022075 C6.56933214,5.1227667 6.68802586,5.11453561 6.72645708,5.09045207 C6.73850894,5.08289764 6.76643735,5.09512212 6.78852122,5.11761372 C6.81060187,5.14010604 6.83460863,5.1558164 6.84186808,5.15252354 C6.84912574,5.14923317 6.86328689,5.17972543 6.87333464,5.22028504 C6.88782385,5.27877375 6.88143909,5.30784644 6.84247483,5.36080895 C6.79995346,5.4186096 6.79815219,5.42944548 6.82908212,5.44140855 C6.87630324,5.45967171 6.86308798,5.5722964 6.79931738,5.69507747 C6.73654203,5.8159482 6.66044624,5.8848116 6.56727544,5.90506629 C6.49113243,5.92161999 6.45235706,5.95559886 6.47883301,5.98256642 C6.48693353,5.99081994 6.51257664,5.98553733 6.53581353,5.97082309 C6.57128366,5.9483671 6.58207839,5.95315147 6.60306611,6.00063335 C6.61753707,6.03336858 6.64766637,6.05712697 6.67458808,6.05703402 C6.73559507,6.05682781 6.73330118,6.08986469 6.66863012,6.14282969 C6.63996366,6.16630779 6.59029303,6.22580224 6.558253,6.27503526 L6.49999567,6.36455293 L6.37355239,6.3500563 C6.30400771,6.34208234 6.2339493,6.33449195 6.21786883,6.33318599 C6.20178692,6.33188181 6.16758144,6.2958993 6.14185461,6.25322388 C6.08418363,6.15756209 6.06418795,6.15620627 6.03267667,6.24582224 C6.01912727,6.28435363 5.99554122,6.31592251 5.98026532,6.3159745 C5.96247552,6.31603434 5.9662555,6.33158158 5.99077635,6.35921548 C6.01306199,6.3843272 6.02265432,6.41896243 6.01372561,6.44207834 C6.00381775,6.46773496 6.01727234,6.4997052 6.05173505,6.53238095 C6.0953336,6.57372264 6.13469426,6.58333554 6.26711839,6.58498981 C6.44125967,6.58716546 6.57831022,6.63830845 6.57780221,6.70092624 C6.57764159,6.72068269 6.56614495,6.75808797 6.5522514,6.78404659 C6.51731467,6.84933008 6.54368867,6.86669862 6.59983421,6.8153854 C6.63836166,6.78017678 6.65635574,6.77735759 6.70366165,6.7991248 C6.75653736,6.8234548 6.76078348,6.83754579 6.75958717,6.98466469 C6.75847206,7.12190464 6.74853164,7.15931455 6.68754504,7.25574239 C6.64863193,7.31727075 6.56334485,7.41933058 6.49801875,7.48254098 C6.4326905,7.54575174 6.38449344,7.59745279 6.39091325,7.59743036 C6.40774607,7.59737337 6.61675468,7.48318844 6.67282974,7.4434159 C6.72297367,7.40785008 6.804152,7.3972699 6.7992909,7.42693486 C6.79047596,7.48075316 6.80803859,7.52318962 6.86583657,7.58771666 C6.90809714,7.63489689 6.93095589,7.68693878 6.9320481,7.73846746 C6.94031068,8.12778154 6.94937319,8.33579557 6.95935833,8.36520625 C6.96588153,8.38442671 6.98385378,8.43684646 6.99929138,8.48169398 C7.01473077,8.52654007 7.02960849,8.59156749 7.03235493,8.62619988 C7.03510245,8.66083012 7.05184297,8.70705946 7.06955943,8.7289296 C7.08727267,8.75079939 7.10240475,8.79062962 7.10318858,8.8174419 C7.10888538,9.01291236 7.11320843,9.04249612 7.13416538,9.02936313 C7.16855833,9.0078096 7.16301286,8.88751261 7.11857967,8.69121021 C7.07774402,8.51079659 7.08146104,8.47292405 7.15715435,8.29817412 C7.1821571,8.24044826 7.18713518,8.17759293 7.17621202,8.05751959 C7.15041185,7.77394888 7.15353715,7.57356228 7.18394584,7.56166866 C7.22271192,7.54650675 7.25787081,7.59613259 7.27481525,7.68993853 C7.2827004,7.73358836 7.31243473,7.81284175 7.34088904,7.86605783 C7.36934478,7.91927176 7.3864223,7.96907104 7.37883694,7.97672055 C7.37125445,7.98436863 7.37713119,7.99058611 7.39189623,7.99053554 C7.40666376,7.99048568 7.41857395,8.01143662 7.41836538,8.03709466 C7.41811281,8.06819628 7.43332861,8.08369296 7.46401026,8.08358861 C7.51821715,8.08340306 7.52188552,8.04633896 7.47955232,7.9265662 C7.37541436,7.63194664 7.35660855,7.3487976 7.43132592,7.20050665 C7.45311715,7.15726034 7.47829412,7.0689781 7.48727756,7.00432356 C7.50275272,6.8929304 7.51634434,6.8740796 7.74658465,6.64459502 C7.88022191,6.51139974 8.00296284,6.40237419 8.01934275,6.40231898 C8.03572266,6.40226271 8.05332536,6.38973837 8.05845835,6.37448779 C8.06464562,6.35610461 8.08272914,6.36197271 8.11210322,6.39189373 C8.14913779,6.42961633 8.15604807,6.46958011 8.15417525,6.63520149 L8.15193539,6.83337291 L8.32516977,6.81950201 C8.53882447,6.80239202 8.73212144,6.73868232 8.77376704,6.67164306 C8.8269708,6.58598842 8.83790255,6.49955099 8.80036749,6.46132054 C8.75437524,6.41446475 8.75786651,6.32513725 8.80837249,6.25699468 C8.88409156,6.15482231 8.90689701,6.08534173 8.89946942,5.97947157 C8.89541361,5.92175888 8.88643733,5.85881274 8.87952597,5.83959298 C8.84977947,5.75695769 8.83694092,5.65656994 8.84121638,5.54012316 C8.84391059,5.46695226 8.83267547,5.39471872 8.81402886,5.36527992 C8.79655352,5.33769268 8.77641295,5.28889914 8.76927263,5.25685268 C8.76213196,5.22480587 8.74487592,5.15663908 8.73093049,5.10537215 C8.7169822,5.05410594 8.70714088,4.96663749 8.70906056,4.91099824 C8.7109806,4.85535936 8.7031881,4.79765771 8.6917691,4.78277182 C8.65098174,4.72965795 8.64232135,4.62628041 8.66971207,4.51943835 C8.69099815,4.43639386 8.69125287,4.4006318 8.67080929,4.36707923 C8.63815607,4.31347354 8.68310263,4.28780091 8.77094082,4.30989114 C8.81311231,4.32049696 8.8337337,4.31221602 8.85250301,4.27714273 C8.87180144,4.24109327 8.90103099,4.23011742 8.97845367,4.22985353 C9.06167761,4.22956933 9.08733218,4.21839867 9.12543212,4.16584893 C9.16808157,4.10702047 9.17599319,4.10457237 9.22961624,4.13360553 C9.26152748,4.15088611 9.30274092,4.15911399 9.32121008,4.15189256 C9.3451385,4.14253465 9.3514467,4.15129816 9.3431834,4.18238874 C9.33601375,4.20934099 9.35428293,4.24913739 9.39095653,4.28650313 C9.42361941,4.31976866 9.45019696,4.3654036 9.45001308,4.38791194 C9.44982919,4.41042099 9.46251964,4.44191508 9.4782073,4.45789717 C9.49390141,4.47387962 9.50670812,4.50479926 9.50667878,4.5266085 C9.50659507,4.58448892 9.56439341,4.71767281 9.58955428,4.71758662 C9.60141867,4.71754745 9.60537753,4.72683911 9.59835026,4.73823841 C9.59131941,4.74963735 9.60077329,4.77178635 9.61935229,4.78745932 C9.63792449,4.80313122 9.64737837,4.82528128 9.6403511,4.83668094 C9.63332347,4.84807916 9.6389312,4.85736691 9.65280901,4.8573199 C9.66669612,4.85727254 9.67585665,4.88085784 9.67317854,4.90973075 C9.66433426,5.00497977 9.67435947,5.04384273 9.70776109,5.04372876 C9.74135984,5.04361409 9.75163654,5.06689133 9.77717555,5.20091357 C9.79014003,5.26895713 9.79786133,5.27511371 9.85318476,5.26151739 C9.88705754,5.25319335 9.90710116,5.25471941 9.89771811,5.26490997 C9.87371886,5.29098397 9.94975705,5.34449457 10.0117661,5.34517088 C10.0409477,5.34549034 10.0634208,5.3602726 10.0632695,5.37905822 C10.0631207,5.39738585 10.075824,5.4262064 10.0915116,5.44310484 C10.1071964,5.46000292 10.1230358,5.50530701 10.1267142,5.54378107 C10.130399,5.58225369 10.1480164,5.64415992 10.1658723,5.68134688 C10.1837251,5.71853599 10.197961,5.79396516 10.1975124,5.84896727 C10.1970734,5.90396938 10.2069985,5.95542292 10.2195956,5.96330784 C10.2321919,5.97119454 10.2425913,5.96540621 10.242714,5.95044766 C10.2428335,5.9354884 10.2581212,5.92912384 10.2766773,5.93630182 C10.2952366,5.94348123 10.3264188,5.93322264 10.3459655,5.91350643 C10.3778735,5.88131289 10.3878891,5.88444371 10.4441706,5.94422235 C10.4786501,5.98083131 10.5176923,6.03054867 10.5309344,6.05470522 C10.5464446,6.08300011 10.5658171,6.09185836 10.5853735,6.07960361 C10.6204018,6.05764942 10.7503278,5.78178841 10.7507728,5.7284452 C10.7509309,5.70874608 10.7633953,5.67282804 10.7784669,5.64862839 C10.8001369,5.61385391 10.797975,5.58320174 10.7681548,5.50242157 C10.7473978,5.44620788 10.7305453,5.38564644 10.7306873,5.36784198 C10.7308294,5.35003752 10.7170195,5.3189473 10.6999924,5.29875386 C10.6829625,5.27855757 10.6585243,5.2305828 10.6456757,5.19214186 C10.6328468,5.15369808 10.6151357,5.10390237 10.6063433,5.08148306 C10.5941244,5.05033122 10.6017842,5.0406795 10.6388416,5.04055343 C10.6689623,5.04045157 10.6881606,5.02492676 10.6895254,4.99956325 C10.6929294,4.9365936 10.7070136,4.84855247 10.7250149,4.77790126 C10.7358951,4.73517384 10.7290903,4.694569 10.7046228,4.65633534 C10.6844243,4.62476077 10.6680748,4.57741707 10.668288,4.55112796 C10.6688525,4.48151133 10.8052638,4.36519134 10.8884233,4.3634142 C10.9263877,4.36260256 10.9989704,4.35206405 11.0496928,4.33999593 C11.1165608,4.32408613 11.1545058,4.32619269 11.1876982,4.34765648 C11.2128783,4.36393773 11.2517882,4.38404819 11.2741615,4.39234623 C11.3081699,4.40495711 11.3111159,4.40026925 11.2921048,4.36376928 C11.2740066,4.3290183 11.2800018,4.31303834 11.3215282,4.28547211 C11.3586537,4.2608191 11.3823853,4.20974556 11.4038811,4.10824487 C11.4255961,4.00570319 11.4478595,3.95815934 11.4831554,3.93897734 C11.5101591,3.92430406 11.5552799,3.88724637 11.5834387,3.8566266 C11.6714865,3.7608829 11.7781677,3.80257966 11.7786356,3.9329098 L11.7788549,3.99871752 L11.8245631,3.9434971 C11.8497018,3.91312521 11.8705168,3.85762165 11.8708262,3.82015227 C11.8715006,3.73622704 11.9222037,3.71232477 11.9958188,3.76122515 C12.0525911,3.79893992 12.0551401,3.82659375 12.0186375,4.00850102 L12.0024558,4.0891341 L12.0726509,4.01340149 C12.1257931,3.9560624 12.1570815,3.9402427 12.2014893,3.94826473 C12.2790636,3.96228058 12.3110006,3.98384872 12.3004849,4.01511131 C12.2957322,4.02918664 12.3104812,4.05966217 12.3332319,4.08283613 C12.3887943,4.13942876 12.3850322,4.17824756 12.3159601,4.2608654 C12.2404088,4.35125384 12.2425127,4.36017726 12.3326448,4.33152018 C12.3738905,4.3184082 12.4242065,4.30242077 12.4444726,4.29599388 C12.487777,4.28225618 12.5310845,4.37373084 12.5412742,4.50048214 C12.5449622,4.54635463 12.5527674,4.59331441 12.5586172,4.60483764 C12.5692295,4.62574478 12.5659545,4.76819683 12.5538515,4.81243748 C12.5376249,4.87173748 12.5556132,4.91739272 12.5951714,4.91725774 C12.6187773,4.91717654 12.6655084,4.93901641 12.6990006,4.96578525 C12.7325057,4.9925555 12.7758488,5.00822598 12.7953311,5.00060852 C12.8564527,4.97669877 12.9656026,5.05136581 12.9799061,5.12687155 C12.9870853,5.16478113 13.0018729,5.19576593 13.0127595,5.19572925 C13.0236493,5.19569257 13.0439124,5.24288384 13.0577998,5.30059795 C13.0758816,5.37580382 13.0998489,5.41372159 13.1423628,5.43442716 C13.2048074,5.46483609 13.2315204,5.5293553 13.2342889,5.65645704 C13.2352085,5.6985979 13.2518771,5.75794882 13.2713175,5.78834956 C13.2967529,5.82811249 13.3037288,5.88348783 13.296172,5.985704 C13.2904029,6.06384874 13.2946523,6.12775468 13.3056131,6.12771693 C13.3165739,6.12767953 13.3421447,6.16351139 13.3624499,6.20734249 C13.4006142,6.28975128 13.502075,6.34812887 13.4735582,6.27127372 C13.4154115,6.11452269 13.4107684,5.88176447 13.4644043,5.8122935 C13.492408,5.77601148 13.5087153,5.66079624 13.4877036,5.64763654 C13.4773495,5.64115375 13.4751425,5.61963868 13.4827896,5.59982702 C13.4972834,5.56229424 13.4533694,5.39043722 13.4164924,5.34038829 C13.4048056,5.32453405 13.3834293,5.31841736 13.3689709,5.32679696 C13.3545221,5.3351762 13.350163,5.33369466 13.359291,5.32350623 C13.3867979,5.29280705 13.3358303,5.22172455 13.2807166,5.21393828 C13.2088051,5.20377693 13.1606351,5.09658478 13.1997577,5.03378038 C13.2243412,4.99430593 13.2216761,4.97876438 13.1825954,4.93373558 C13.075517,4.81035265 13.07029,4.79404718 12.9750856,4.28619686 C12.9642667,4.22850376 12.9529316,4.17081422 12.9498824,4.15799642 C12.9329524,4.08669027 12.9575877,3.98256519 13.0043638,3.9277611 C13.0603713,3.86212254 13.1490482,3.82994039 13.1714603,3.86711596 C13.1787008,3.87913209 13.2099086,3.88887606 13.2408002,3.88877029 C13.2777255,3.88864457 13.2968626,3.90180497 13.2966593,3.92718095 C13.2963721,3.96257369 13.3000052,3.9624355 13.3403992,3.92552454 C13.3873335,3.88263472 13.3922832,3.88521851 13.4694959,3.99295199 C13.5017814,4.03798826 13.5039238,4.03809688 13.5360996,3.99634101 C13.5622481,3.96240773 13.5856313,3.95673942 13.645627,3.96979334 C13.7370788,3.98969438 13.8089193,4.03698324 13.8149756,4.08127375 C13.8221774,4.1338648 13.8996612,4.21306869 13.943769,4.21291805 C13.9662681,4.21284112 13.9845953,4.22286608 13.9844985,4.23519561 C13.9842242,4.26885894 14.079661,4.35260503 14.1021956,4.3384802 C14.1130015,4.33171605 14.1216907,4.34254517 14.1215293,4.36254523 C14.121368,4.38254599 14.1296894,4.39888102 14.1400082,4.39884576 C14.1700963,4.39874391 14.2520554,4.56390409 14.2803818,4.68167677 L14.3064076,4.78996226 L14.4298191,4.80518721 C14.4977005,4.81356075 14.6028913,4.81303793 14.6635709,4.80402762 C14.7731821,4.78775028 14.8883302,4.71189089 14.8641983,4.67185552 C14.8572611,4.66035223 14.8662311,4.62773453 14.884142,4.5993734 C14.9024756,4.57033632 14.9151336,4.49941016 14.913117,4.43702707 C14.9111617,4.37609774 14.9183829,4.32621691 14.9291661,4.32617987 C14.9399656,4.3261439 14.9434375,4.31168252 14.9368939,4.29404545 C14.9294436,4.27393214 14.94598,4.25657891 14.9812824,4.24749772 C15.0734569,4.22378242 15.1494403,4.0210104 15.0891514,3.9596099 C15.0632835,3.93325525 15.078068,3.89393679 15.1470559,3.80563569 C15.1824488,3.76033658 15.2772302,3.73127635 15.2769493,3.76580937 C15.2768527,3.77749821 15.2923565,3.78096879 15.3114031,3.77352049 C15.3304468,3.76607042 15.3461413,3.74636739 15.3462769,3.72973463 C15.3464343,3.71012312 15.3865959,3.69651612 15.4605334,3.69102231 C15.6035594,3.68039655 15.6659398,3.72557457 15.6799464,3.84992549 C15.6854479,3.89876675 15.707521,3.97278063 15.7289878,4.01440117 C15.7645327,4.08332013 15.7776617,4.09004083 15.8759823,4.08970463 C15.9578318,4.08942542 16.0288179,4.06563533 16.1695622,3.99131553 C16.2716524,3.93740356 16.348894,3.88287654 16.3412178,3.87014208 C16.3329516,3.85642111 16.3429253,3.85304776 16.3657014,3.86186078 C16.4109134,3.87934471 16.5230958,3.8331663 16.5056655,3.80425066 C16.4990772,3.79331969 16.5129321,3.78431186 16.5364666,3.78423137 C16.5905194,3.78404689 16.6348334,3.74020191 16.6352681,3.68646872 C16.6354562,3.66367155 16.6603331,3.62859827 16.69056,3.60852663 C16.7315896,3.5812884 16.7496842,3.54208533 16.7619296,3.45396194 C16.7780945,3.33768113 16.7475033,3.17707026 16.7092166,3.17720132 C16.6989492,3.17723587 16.6837839,3.13904245 16.6755106,3.09232734 C16.667238,3.04561187 16.6458102,2.99245421 16.6278795,2.9742003 C16.6099591,2.95594568 16.5939037,2.91289987 16.5922154,2.87854528 C16.585879,2.75078076 16.5789608,2.69843082 16.5631801,2.65872488 C16.5529936,2.63309712 16.5573524,2.61792666 16.5749115,2.61786648 C16.592355,2.61780664 16.5968884,2.60244459 16.5869887,2.57700771 C16.578274,2.5545877 16.5686394,2.52575575 16.5655799,2.51293724 C16.554836,2.46789384 16.5077791,2.34940176 16.4836317,2.30659243 C16.4535461,2.25325562 16.5014806,2.12002224 16.54474,2.13675187 C16.560292,2.14276599 16.6022188,2.13229443 16.6379208,2.11347889 C16.7112973,2.07481288 16.7633362,2.08524669 16.7629009,2.13853577 C16.7626555,2.16875452 16.7701864,2.16976951 16.8103288,2.1449363 C16.8521997,2.11903858 16.8647779,2.12333326 16.9129992,2.1799729 C16.9946777,2.27591817 17.1053371,2.23827642 17.0879333,2.12046741 C17.0835741,2.09094455 17.1269008,2.10097557 17.1375782,2.13196073 C17.1523718,2.17489792 17.1727739,2.14637546 17.1838734,2.06723923 C17.1931302,2.00127267 17.1987773,1.99789967 17.2925777,2.00239949 C17.3470079,2.00501177 17.4106912,2.02478924 17.4341041,2.04635025 C17.4615685,2.07163078 17.4767653,2.07549738 17.4769177,2.05723635 C17.4770404,2.0416631 17.4863745,2.03469525 17.4976482,2.04175499 C17.5089152,2.04881331 17.5245227,2.0380629 17.5323209,2.01786305 C17.5439499,1.98776503 17.5588674,1.99372786 17.6150029,2.05090812 C17.6526771,2.08928067 17.6834081,2.13198317 17.6832983,2.14579851 C17.683182,2.15961528 17.6986246,2.17086429 17.7176161,2.17080018 C17.7365951,2.17073536 17.7520405,2.18117985 17.7519375,2.19400762 C17.7515601,2.2406483 17.7563325,2.25260068 17.7816515,2.26845635 C17.7992559,2.27947743 17.7962516,2.28898848 17.7721944,2.2983966 C17.7367496,2.31225896 17.7352106,2.35231676 17.7638534,2.51608266 C17.773659,2.57218274 17.7868141,2.58953455 17.8120712,2.57965846 C17.8311733,2.57218737 17.8600064,2.57721606 17.8761492,2.59083446 C17.8965545,2.608052 17.9100992,2.6081275 17.9206149,2.59108447 C17.9506512,2.54235859 17.9796485,2.56743826 17.9640102,2.6286265 C17.9507875,2.68040662 17.9545871,2.68829617 17.9867409,2.67571841 C18.0079884,2.66741004 18.070959,2.66679713 18.1266828,2.6743576 C18.2098488,2.68564009 18.2327025,2.69984042 18.2542787,2.75362916 C18.2687275,2.78966865 18.2754514,2.82767794 18.2692051,2.83809608 C18.2629713,2.84851314 18.2650366,2.90686688 18.2737997,2.96777413 C18.2825635,3.0286796 18.2810241,3.07854049 18.2703671,3.07857681 C18.2597158,3.07861278 18.250917,3.08983971 18.2508007,3.10352471 C18.2504684,3.14498855 18.1306227,3.2894656 18.1082033,3.27542981 C18.0967009,3.26822511 18.0900253,3.27622257 18.0933613,3.29320079 C18.1015992,3.33504285 18.1792437,3.38027215 18.2442188,3.38106099 C18.2920878,3.38164115 18.2960442,3.38993349 18.2838149,3.46412401 C18.274771,3.51898295 18.2798203,3.55007318 18.2988994,3.5570998 C18.3654132,3.58159326 18.4444744,3.58366065 18.4717979,3.56162205 C18.4927383,3.54472575 18.5131565,3.55214911 18.5433155,3.58763409 C18.5665309,3.61494782 18.5975185,3.63725387 18.6121587,3.63720294 C18.6268103,3.63715308 18.6484312,3.66331969 18.6601997,3.69535118 C18.673293,3.73100711 18.6996638,3.75352899 18.7281846,3.75343212 C18.7538127,3.75334451 18.7747089,3.7621358 18.7746183,3.77296919 C18.774535,3.78380365 18.7983568,3.82104618 18.8275731,3.85573234 C18.8750207,3.91208956 18.8870461,3.91584504 18.9405657,3.89103533 C19.0028624,3.86216136 19.0507357,3.74836853 19.0067991,3.73362972 C18.9772719,3.7237287 18.9761071,3.47502186 19.0053695,3.42869779 C19.0198831,3.40572113 19.0495319,3.40083989 19.1080658,3.41178867 C19.1635799,3.42217083 19.2127529,3.41541274 19.2591844,3.39102363 C19.2970347,3.37113647 19.3484933,3.3547961 19.3735294,3.35471134 C19.4247608,3.35453683 19.4984762,3.29065368 19.4809654,3.26160948 C19.4746798,3.25118066 19.4857185,3.23631862 19.5055002,3.2285847 C19.5252795,3.22084794 19.5358824,3.20528894 19.5290866,3.19400717 C19.5222915,3.18272504 19.5426486,3.14530338 19.5743366,3.11084977 C19.6060088,3.07639546 19.6320673,3.03238808 19.6322193,3.01305685 C19.6325714,2.97015385 19.8333757,2.78176735 19.8792263,2.78132716 C19.8973434,2.78115301 19.9205621,2.76739963 19.9308223,2.75076438 C19.9561488,2.70968018 19.9953549,2.72241678 20.0798893,2.79919715 C20.1769485,2.88735473 20.2334468,2.89698438 20.3385374,2.84328182 C20.4384364,2.79223071 20.6009866,2.75530765 20.6002056,2.78384649 C20.5991542,2.82292562 20.5618703,2.85461808 20.461542,2.90174382 C20.4043601,2.92859741 20.3212037,2.96770611 20.2767312,2.98865278 C20.2322687,3.00959945 20.1452766,3.06333656 20.0834056,3.10806833 C20.0215515,3.15280117 19.9529505,3.18946248 19.9309872,3.18953655 C19.9090204,3.18961277 19.8721271,3.21073003 19.8490151,3.23646606 C19.825893,3.26220102 19.7928363,3.28330618 19.7755387,3.28336565 C19.7582405,3.28342477 19.7321827,3.30952656 19.7176441,3.34136966 C19.6943089,3.39241756 19.700817,3.41189907 19.7726191,3.50606437 C19.8421101,3.59720176 19.8520964,3.62546068 19.8406838,3.6987662 C19.8215342,3.82191409 19.5808161,4.05324632 19.4710819,4.05396466 C19.44406,4.05414095 19.405608,4.07930893 19.3856352,4.10989273 C19.3517335,4.16179963 19.3527269,4.16875752 19.4005673,4.21450607 C19.4443526,4.25637128 19.4633903,4.26011786 19.5312195,4.24021397 C19.5748918,4.2273983 19.6129756,4.21690752 19.6158634,4.21689754 C19.6284347,4.2168541 19.5905634,4.41916065 19.5710617,4.45612752 C19.5472624,4.50127384 19.5522799,4.50358411 19.66043,4.49721741 C19.7015851,4.49479389 19.735161,4.50411227 19.7350483,4.51792441 C19.7349352,4.5321575 19.7799526,4.54288298 19.8389645,4.5426807 C19.9288576,4.54237299 19.9460131,4.55028569 19.9644919,4.60056504 C19.9762604,4.63259654 20.0009405,4.65875174 20.0193352,4.65868871 C20.0602385,4.65855053 20.1256168,4.59562682 20.1259363,4.55608506 C20.1262876,4.5127554 20.2526025,4.42665808 20.3021761,4.43596222 C20.325979,4.44043034 20.3524599,4.44486534 20.3610266,4.44581729 C20.3695933,4.44676961 20.4042538,4.50776946 20.4380651,4.58137306 C20.4718767,4.65497525 20.516039,4.72751471 20.5362283,4.74256978 C20.5647026,4.76381454 20.5718658,4.80819907 20.5682039,4.94080459 C20.5626931,5.14083149 20.4994162,5.30952528 20.4068382,5.37099381 C20.3610914,5.40136178 20.349095,5.42452613 20.3585843,5.46411134 C20.3691092,5.50804251 20.3597849,5.51938163 20.3024859,5.53230947 C20.2471464,5.54479464 20.2290221,5.56517327 20.2093921,5.63693991 C20.1794162,5.74652567 20.1984667,5.80890163 20.2571198,5.79318771 C20.3203945,5.77623656 20.3096985,5.8175665 20.2151801,5.95535668 C20.1387323,6.06678795 20.1340898,6.08193597 20.1662171,6.11467084 C20.2106953,6.15997422 20.2485889,6.16077482 20.2655741,6.11677064 C20.2727817,6.09812249 20.3141024,6.07092771 20.3573908,6.05633634 C20.4006849,6.04174354 20.4361808,6.02171428 20.4362613,6.01182466 C20.4363425,6.00193432 20.5271196,5.98072874 20.6379961,5.96470248 C20.7757203,5.94479289 20.8546524,5.92132297 20.8871675,5.89061488 C20.9327082,5.84760362 21.1693151,5.78467528 21.1933723,5.80917835 C21.1997227,5.81565189 21.1917431,5.87083385 21.1756265,5.93180521 C21.1137562,6.16578997 21.1121589,6.15586046 21.23246,6.28439637 C21.2937664,6.34991633 21.3523707,6.40349282 21.36268,6.40345792 C21.3729889,6.40342266 21.4015759,6.42956611 21.426202,6.46155274 C21.4508466,6.49354043 21.4856782,6.51966145 21.5036368,6.51960055 C21.5215966,6.51953858 21.5808863,6.55406056 21.6353862,6.59631325 C21.6898969,6.6385663 21.791219,6.69107258 21.8605422,6.71299757 C21.9747966,6.74912965 21.9929399,6.74949897 22.0543783,6.71695427 C22.1483043,6.6671988 22.1843329,6.67238027 22.2345974,6.74287158 C22.2768172,6.8020772 22.2768404,6.80462145 22.2350879,6.83552221 C22.20135,6.86048934 22.1981041,6.87336127 22.2199386,6.89559752 C22.2352206,6.91116365 22.2707991,6.92412212 22.2990059,6.92439599 C22.3406558,6.92479985 22.3516036,6.94021676 22.3572661,7.00641374 C22.368547,7.13831766 22.4347757,7.19180226 22.4652452,7.09360619 C22.492506,7.00572497 22.5194256,6.98584564 22.5864685,7.00407213 C22.6345608,7.0171467 22.6468319,7.03303798 22.6405885,7.0741642 C22.6352169,7.10961107 22.6425085,7.12395279 22.6624488,7.11716728 C22.6788956,7.1115677 22.7142874,7.13390332 22.7410746,7.16680201 C22.7979474,7.23663945 22.8126441,7.44812228 22.7606249,7.44829964 C22.7139969,7.44845847 22.698458,7.51807083 22.7364127,7.55674254 C22.7747059,7.59574439 22.7822394,7.70479772 22.746654,7.70491917 C22.7179432,7.70501746 22.7154518,7.79087724 22.7436368,7.80853105 C22.7752604,7.82833344 22.7203992,7.92616804 22.661939,7.95422253 C22.6337219,7.96776579 22.5594846,7.97403704 22.4969854,7.96815754 C22.4060588,7.95960593 22.3803659,7.96515137 22.3685083,7.99588296 C22.3522361,8.03798964 22.4014642,8.06460568 22.5454587,8.09153407 C22.7004614,8.12052485 22.6132146,8.24184218 22.4369311,8.24244192 C22.378555,8.24264172 22.3235865,8.25449794 22.3147687,8.26878909 C22.3059634,8.28307881 22.2429186,8.31989753 22.1746823,8.35060811 C22.1064462,8.38131833 22.0505128,8.41769259 22.0504026,8.43144098 C22.0502896,8.44560214 22.062735,8.44849968 22.079116,8.43812393 C22.1145639,8.41567542 22.1641304,8.40320949 22.2174669,8.40333342 C22.2396116,8.40338506 22.2577989,8.3948566 22.2578872,8.38438077 C22.2579702,8.37390637 22.2902818,8.35173636 22.3296818,8.33511606 C22.3854893,8.31157812 22.4176531,8.31084198 22.4751606,8.33179008 C22.5755271,8.36833991 22.6416789,8.36532698 22.6578381,8.32346747 C22.668992,8.29459421 22.6823314,8.29329288 22.7351574,8.31592017 C22.7702594,8.33095956 22.8092888,8.35547546 22.8218687,8.37039947 C22.8344564,8.38532525 22.867945,8.40493997 22.8962974,8.41398875 C22.9600622,8.4343371 22.9599971,8.44215649 22.8947973,8.58944633 C22.8444555,8.70313053 22.8356567,8.71055354 22.7024226,8.7515455 C22.6086032,8.78041163 22.5292669,8.78993871 22.4605665,8.780584 C22.3358898,8.76360864 22.110321,8.82115287 22.0525352,8.88467418 C22.0232055,8.91692008 22.0221412,8.92165138 22.0487026,8.901615 C22.0689752,8.88632239 22.0923194,8.88069468 22.1005799,8.88910882 C22.1088399,8.89752083 22.1157062,8.89169867 22.1158289,8.8761678 C22.1159581,8.86063943 22.1289766,8.85024159 22.1447776,8.85306471 C22.1605726,8.85588568 22.2119232,8.84666346 22.2588707,8.83256962 C22.3183987,8.81470319 22.3706502,8.81410132 22.4314686,8.83058201 C22.5080134,8.85131962 22.6349776,8.85430514 22.8294709,8.83993885 C22.877664,8.83637817 22.8880405,8.84707801 22.893239,8.90563902 C22.901367,8.99742388 22.8506918,9.0636636 22.7698269,9.06692975 C22.7019236,9.06967202 22.6570443,9.12803038 22.7230254,9.12780495 C22.7438181,9.12773479 22.7540652,9.13861555 22.7458308,9.15198678 C22.736109,9.16775092 22.7517842,9.17090667 22.7904229,9.1609679 C22.8570322,9.14383191 22.8691803,9.17523233 22.813893,9.22161303 C22.762409,9.26480379 22.8076943,9.30220587 22.8702943,9.26818854 C22.9165646,9.24303729 22.9186742,9.24551245 22.9031415,9.30673346 C22.8881657,9.36577775 22.8903158,9.3690236 22.9251466,9.34001216 C22.9463712,9.32233342 22.9638723,9.29166023 22.9640336,9.27185 C22.964543,9.20899431 22.9880429,9.25715179 22.9980198,9.34148551 C23.0045763,9.39697054 22.9949575,9.4367064 22.9675796,9.46727701 C22.9362401,9.50227408 22.9278795,9.55155126 22.929015,9.69452754 C22.9303805,9.86700032 22.9273378,9.87854386 22.8738407,9.90333897 C22.8310585,9.92316487 22.8060744,9.92253771 22.7716922,9.90077512 C22.7466444,9.88493014 22.7067474,9.8782618 22.6830154,9.88595725 C22.6513396,9.89623043 22.6254586,9.87823117 22.5856336,9.81823955 C22.5137277,9.70991916 22.3767162,9.60149512 22.2767303,9.57378822 C22.2322642,9.5614683 22.1716582,9.52821169 22.1420251,9.49988546 C22.0824234,9.4428936 22.0688561,9.46865954 22.1212102,9.53941261 C22.1692641,9.604351 22.1638854,9.61948656 22.0925226,9.62011122 C22.057714,9.6204175 21.9841217,9.63670303 21.9289761,9.65630136 C21.8708483,9.67695849 21.7976331,9.68612017 21.7547386,9.67809778 C21.6998444,9.66783207 21.6721475,9.67493384 21.6473859,9.70562269 C21.6265327,9.73146414 21.6248455,9.74037367 21.6429108,9.72936684 C21.660131,9.71887641 21.6718602,9.72410097 21.671921,9.74228614 C21.6720051,9.76497504 21.6775584,9.76405086 21.6935627,9.73868557 C21.7120694,9.70933616 21.7213627,9.71032159 21.7598011,9.74571504 C21.7843881,9.76835694 21.8082489,9.77629243 21.8128371,9.76335212 C21.8237234,9.73262444 22.0008322,9.72868839 22.1306451,9.7562913 C22.1869205,9.76825758 22.2533177,9.77401563 22.2781888,9.76908489 C22.3073049,9.76331009 22.3464123,9.78680636 22.3880937,9.83511092 C22.5628016,10.0376002 22.7029843,10.145099 22.7901159,10.1434012 C22.8559389,10.1421188 22.864858,10.1493434 22.8644158,10.2035934 C22.8641407,10.2374999 22.8507863,10.2703769 22.834743,10.276651 C22.7923358,10.2932385 22.5825093,10.2725077 22.5544543,10.2489584 C22.541302,10.2379195 22.4580913,10.2250429 22.3695304,10.2203454 C22.2809828,10.2156472 22.1904701,10.2033993 22.1684063,10.1931282 C22.1433842,10.18148 22.1282088,10.1840499 22.1280829,10.1999597 C22.1278024,10.2343695 22.2533045,10.2847692 22.3824015,10.302089 C22.4670837,10.3134498 22.6720218,10.4219208 22.7443662,10.4936743 C22.7534162,10.5026515 22.7114383,10.5684628 22.6366103,10.662612 C22.5953025,10.714587 22.591496,10.7150738 22.5065001,10.6792398 C22.4583335,10.6589378 22.3966532,10.646173 22.3694371,10.6508733 C22.3268459,10.6582294 22.3317954,10.6654376 22.4048943,10.7025555 C22.4516285,10.726279 22.4844402,10.7544749 22.4778183,10.7652114 C22.4712042,10.7759487 22.4983241,10.7846228 22.5380983,10.7844871 C22.5831261,10.7843329 22.6069415,10.7945587 22.6011982,10.8115925 C22.5916573,10.8399468 22.5487525,10.8503069 22.3802336,10.8649578 C22.3256711,10.8697005 22.2746718,10.879994 22.2669014,10.8878322 C22.2591261,10.8956705 22.2337875,10.9021483 22.2105878,10.9022274 C22.1588683,10.9024036 22.1532896,10.9778228 22.2019628,11.0188803 C22.220819,11.0347866 22.2361397,11.0609738 22.2360037,11.0770752 C22.2358753,11.0931773 22.2512041,11.1193653 22.270045,11.1352705 C22.2889073,11.1511767 22.3042659,11.1726587 22.3041821,11.1830081 C22.3038752,11.2212528 22.1047709,11.3356927 22.0282844,11.3415882 C21.9848061,11.3449391 21.9367099,11.3581804 21.9214254,11.3710131 C21.8393177,11.4398808 21.5528463,11.3585618 21.5290628,11.2596374 C21.522058,11.2304583 21.4969805,11.1961183 21.473349,11.1833265 C21.4497269,11.1705343 21.4329549,11.1511393 21.4360755,11.1402279 C21.4392083,11.1293176 21.4123886,11.0924355 21.3765056,11.0582672 C21.3024035,10.9877403 21.2314207,10.9875885 21.2432236,11.0579819 C21.2516718,11.1083791 21.2909298,11.142045 21.3199851,11.1238313 C21.3302296,11.1174158 21.344662,11.1284946 21.352067,11.1484523 C21.3594692,11.1684085 21.3743176,11.1792287 21.385069,11.1724945 C21.3958069,11.1657603 21.4111819,11.1974406 21.4192323,11.2428957 C21.4272727,11.2883494 21.458403,11.3451503 21.4884071,11.3691185 C21.5183918,11.3930877 21.5428504,11.4240957 21.5427403,11.4380243 C21.5426243,11.4519536 21.5818891,11.4836539 21.6299946,11.50847 C21.7345916,11.5624265 21.7809906,11.6144513 21.7639417,11.6586225 C21.7494339,11.6961837 21.6412716,11.6843877 21.5871198,11.6393386 C21.4984584,11.5655854 21.2887096,11.5485855 21.2881708,11.615109 C21.2880449,11.6304437 21.3174916,11.6651694 21.3536032,11.6922748 C21.4314033,11.7506645 21.4564572,11.848545 21.40652,11.8989266 C21.3873629,11.9182485 21.3578719,11.9287105 21.3409811,11.9221764 C21.3240799,11.9156419 21.3037873,11.9207821 21.2958882,11.9335995 C21.2879805,11.9464166 21.2626,11.9508673 21.2394708,11.943487 C21.2163623,11.9361085 21.1909235,11.9406336 21.1829707,11.9535426 C21.1627582,11.9863227 21.2520231,12.0717298 21.3062976,12.0715446 C21.3485922,12.0714011 21.3492086,12.0760341 21.3169586,12.1528466 C21.2881805,12.221409 21.2874643,12.2462016 21.3124642,12.3094861 C21.3372276,12.3721901 21.3367346,12.4002677 21.3094923,12.4786326 C21.291533,12.5303112 21.282253,12.6012227 21.2888742,12.636213 C21.2969282,12.6787286 21.2895099,12.7063115 21.2665306,12.7193654 C21.2476221,12.7301105 21.2272873,12.7634255 21.2213572,12.7933993 C21.2063436,12.8692116 21.2019751,12.8714008 21.0707873,12.8688509 C20.9669005,12.8668337 20.9383153,12.8781611 20.8114137,12.971633 C20.7329711,13.0294072 20.6579106,13.0770483 20.644626,13.0774995 C20.6189979,13.0783682 20.5319914,13.1529109 20.4630689,13.2330426 C20.428686,13.2730241 20.4251496,13.2978089 20.442328,13.3782408 C20.4582954,13.4529477 20.4555951,13.4827573 20.4305759,13.5079972 C20.4127078,13.5260192 20.3979678,13.5561358 20.3978165,13.5749232 C20.3976648,13.5937106 20.3821192,13.6151078 20.3632915,13.6224738 C20.3444642,13.6298388 20.3345621,13.6507064 20.3412928,13.6688442 C20.3514883,13.6963167 20.3187195,13.6999312 20.1451403,13.690486 C19.9918962,13.6821488 19.9366783,13.6865482 19.9365109,13.7071081 C19.936366,13.7249475 19.9118308,13.7312426 19.8687496,13.7244987 C19.7726384,13.7094529 19.748641,13.6888798 19.7655883,13.6360544 C19.7800138,13.5911264 19.7790264,13.5910125 19.7315087,13.6321216 C19.7045985,13.6554081 19.6932052,13.6780258 19.706199,13.6823846 C19.7469409,13.6960478 19.7060055,13.7330539 19.6499462,13.7332455 C19.618241,13.7333538 19.5812451,13.7097029 19.5591977,13.6752436 C19.51529,13.6066046 19.4679877,13.5978233 19.4875673,13.6619447 C19.5046452,13.7178607 19.4556046,13.736148 19.3028921,13.7308127 C19.2345688,13.7284252 19.1875051,13.7375274 19.1818805,13.7542143 C19.1768348,13.7692348 19.1327301,13.781659 19.083879,13.781825 C18.9689277,13.7822171 18.8348301,13.8623398 18.8148476,13.9425822 C18.7958983,14.0186728 18.7684586,14.0384616 18.6796756,14.040097 C18.5456634,14.0425665 18.3040814,14.1265911 18.206677,14.2046104 C18.1082551,14.2834422 17.8566057,14.565474 17.8145308,14.6440913 C17.8017208,14.6680328 17.7500497,14.7165218 17.6997151,14.7518462 C17.6493862,14.7871709 17.5834895,14.8626652 17.5532815,14.9196108 C17.5230706,14.9765567 17.4692737,15.037464 17.4337452,15.05496 C17.3981975,15.0724571 17.3344752,15.1383404 17.2921255,15.2013688 C17.249783,15.2643968 17.1193795,15.4155162 17.0023375,15.5371915 C16.8570143,15.688271 16.7822827,15.7849617 16.766644,15.8421412 C16.7450832,15.9209694 16.7359681,15.9274931 16.6107791,15.9536672 C16.5376512,15.968958 16.3949217,15.9884442 16.2936057,15.9969705 C16.1922903,16.0054979 16.0989771,16.0201584 16.0862448,16.029549 C16.0537623,16.0535065 15.8419317,16.0319804 15.8577421,16.0063295 C15.8648835,15.994766 15.8554289,15.9853558 15.8367565,15.9854191 C15.8180749,15.9854836 15.799215,15.9961453 15.7948559,16.0091134 C15.790345,16.0225171 15.6577985,16.0383168 15.4877377,16.0457256 C15.0406585,16.0652003 15.0232638,16.0675135 14.9720672,16.1143026 C14.9418015,16.141965 14.9035469,16.1535139 14.8659504,16.1463445 C14.8336068,16.1401797 14.8012634,16.1446863 14.7940679,16.1563595 C14.7868693,16.168033 14.7403094,16.1941633 14.690597,16.214429 C14.6408782,16.2346937 14.6000809,16.2663388 14.599926,16.2847519 C14.5997776,16.3031646 14.586742,16.3152918 14.5709446,16.3117037 C14.5304925,16.3025097 14.3717304,16.4062337 14.2964859,16.491024 C14.2366548,16.5584586 14.1571059,16.7026899 14.063899,16.9127909 C13.9385096,17.1953833 13.8842542,17.2860695 13.7979875,17.3572624 C13.6741179,17.4594646 13.3282832,17.6733518 13.2866665,17.6734942 C13.2419682,17.6736456 12.7246489,17.8088342 12.6078263,17.8508874 C12.5562488,17.8694547 12.5203367,17.874445 12.5280257,17.8619769 C12.5454591,17.8336948 12.4414686,17.8321627 12.4114062,17.8602585 C12.3992871,17.8715787 12.3504364,17.8935507 12.3028536,17.9090873 C12.2552576,17.9246221 12.2162028,17.9525178 12.2160511,17.9710762 C12.2158511,17.9960465 12.1913839,18.0032391 12.1219534,17.9987435 C12.0703473,17.9954026 12.0256812,17.9902104 12.0226804,17.9872053 Z" id="ICELAND"></path>
                    </g>
                </g>
            </g>
        </g>
    </g>
</svg>