<?xml version="1.0" encoding="UTF-8"?>
<svg width="50px" height="50px" viewBox="0 0 50 50" version="1.1" xmlns="http://www.w3.org/2000/svg" xmlns:xlink="http://www.w3.org/1999/xlink">
    <!-- Generator: Sketch 53.1 (72631) - https://sketchapp.com -->
    <title>Fill 1</title>
    <desc>Created with Sketch.</desc>
    <g id="Symbols" stroke="none" stroke-width="1" fill="none" fill-rule="evenodd">
        <g id="Header/Dark" fill="#474747">
            <path d="M35.3461836,33.6756669 L32.5541625,33.6756669 L32.5541625,25.0950089 C32.5541625,22.2347895 30.1441646,20.7725578 27.6063741,20.7725578 C24.529416,20.7725578 22.5949152,23.2201672 22.5949152,26.1120562 C22.5949152,28.9401535 24.6563056,31.3235188 27.5743131,31.3235188 C29.1606579,31.3235188 30.4607111,30.4340548 31.4126083,29.2260849 L31.4126083,32.5319411 C30.3017605,33.3576134 29.2238769,33.9937204 27.288473,33.9937204 C22.9110101,33.9937204 19.8033457,30.3707156 19.8033457,25.889464 C19.8033457,21.5353433 22.7845722,18.1032611 27.6700447,18.1032611 C32.364054,18.1032611 35.3461836,20.9639328 35.3461836,25.3492707 L35.3461836,33.6756669 Z M16.3967457,16.9219841 C15.3188621,16.9219841 14.7155724,16.095407 14.7155724,15.2371602 C14.7155724,14.3798183 15.3188621,13.5532412 16.3967457,13.5532412 C17.4750809,13.5532412 18.0779191,14.3798183 18.0779191,15.2371602 C18.0779191,16.095407 17.4750809,16.9219841 16.3967457,16.9219841 L16.3967457,16.9219841 Z M17.7925305,33.842611 C17.7925305,37.8470086 15.191521,39.4042492 11.6065533,39.4042492 L10.7819971,39.4042492 L10.7819971,36.7345 L11.5117248,36.7345 C14.2400754,36.7345 15.000961,36.0355062 15.000961,33.2381737 L15.000961,18.4213146 L17.7925305,18.4213146 L17.7925305,33.842611 Z M28.0583898,13.0573854 L31.4839555,13.0573854 L27.8597016,16.7948532 L25.7025797,16.7948532 L28.0583898,13.0573854 Z M24.9525316,0 C11.171697,0 0,11.1929494 0,25 L0,50 L24.9525316,50 C38.7333663,50 49.9050633,38.8070506 49.9050633,25 C49.9050633,11.1929494 38.7333663,0 24.9525316,0 L24.9525316,0 Z" id="Fill-1"></path>
        </g>
    </g>
</svg>