<?xml version="1.0" encoding="UTF-8"?>
<svg width="9px" height="9px" viewBox="0 0 9 9" version="1.1" xmlns="http://www.w3.org/2000/svg" xmlns:xlink="http://www.w3.org/1999/xlink">
    <!-- Generator: Sketch 53.1 (72631) - https://sketchapp.com -->
    <title>Shape</title>
    <desc>Created with Sketch.</desc>
    <g id="Symbols" stroke="none" stroke-width="1" fill="none" fill-rule="evenodd">
        <g id="Header/AnotherOne" transform="translate(-450.000000, -88.000000)" fill="#FFFFFF">
            <g id="Group-3" transform="translate(443.000000, 81.000000)">
                <path d="M15.3846963,7.5414677 C14.6627439,6.81951077 13.4922376,6.81951077 12.7702852,7.5414677 C12.0483328,8.26342586 12.0483328,9.4339415 12.7702852,10.1558996 C12.9490303,10.3346484 10.3346215,12.949078 10.1558742,12.7703315 C9.43392177,12.0483734 8.26341547,12.0483734 7.5414643,12.7703315 C6.8195119,13.4922897 6.8195119,14.6628053 7.5414643,15.3847634 C7.54218947,15.3854874 7.54295815,15.3863102 7.54377267,15.3872317 C8.35732131,16.3075013 8.94486289,16.0598975 10.0389879,15.5016507 C12.6051578,14.192332 14.1923026,12.6051957 15.5015991,10.0390146 C16.0598368,8.94488563 16.3075914,8.35716077 15.3871763,7.54378773 C15.3862501,7.54296982 15.3854227,7.54219639 15.3846963,7.5414677 Z" id="Shape" transform="translate(11.500000, 11.500000) scale(-1, 1) translate(-11.500000, -11.500000) "></path>
            </g>
        </g>
    </g>
</svg>