<?xml version="1.0" encoding="UTF-8"?>
<svg width="11px" height="9px" viewBox="0 0 11 9" version="1.1" xmlns="http://www.w3.org/2000/svg" xmlns:xlink="http://www.w3.org/1999/xlink">
    <!-- Generator: Sketch 53.1 (72631) - https://sketchapp.com -->
    <title>Tag</title>
    <desc>Created with Sketch.</desc>
    <g id="Symbols" stroke="none" stroke-width="1" fill="none" fill-rule="evenodd">
        <g id="Header/AnotherOne" transform="translate(-609.000000, -88.000000)" fill="#FFFFFF" fill-rule="nonzero">
            <g id="Group-3" transform="translate(603.000000, 81.000000)">
                <path d="M16.8185918,10.3757159 C17.0604694,10.7265352 17.0604694,11.2756438 16.8185918,11.6242841 L15.1070001,13.4269224 C14.8835708,13.7537727 14.4264631,14 14.0451983,14 L7.80352567,14 C7.36076663,14 7,13.6164956 7,13.1458311 L7,8.85416888 C7,8.38350439 7.36076663,8 7.80352567,8 L14.0451983,8 C14.4244132,8 14.881521,8.24622725 15.1070001,8.57307759 L16.8185918,10.3757159 Z M14.712766,11.8490566 C15.1534187,11.8490566 15.5106383,11.468921 15.5106383,11 C15.5106383,10.531079 15.1534187,10.1509434 14.712766,10.1509434 C14.2721132,10.1509434 13.9148936,10.531079 13.9148936,11 C13.9148936,11.468921 14.2721132,11.8490566 14.712766,11.8490566 Z" id="Tag" transform="translate(12.000000, 11.000000) rotate(-30.000000) translate(-12.000000, -11.000000) "></path>
            </g>
        </g>
    </g>
</svg>