<svg width="13px" height="18px" viewBox="0 0 13 18" version="1.1" xmlns="http://www.w3.org/2000/svg" xmlns:xlink="http://www.w3.org/1999/xlink">
    <g id="Symbols" stroke="none" stroke-width="1" fill="none" fill-rule="evenodd">
        <g id="Header/Dark" transform="translate(-1112.000000, -15.000000)" fill="#464646" fill-rule="nonzero">
            <g id="Group" transform="translate(1067.000000, 15.000000)">
                <g id="Links">
                    <g id="Blank_map_of_Iceland">
                        <g id="screen-locked" transform="translate(45.000000, 0.000000)">
                            <path d="M2.08641975,18 C0.834567901,18 0,17.1 0,15.75 L0,9 C0,7.65 0.834567901,6.75 2.08641975,6.75 L2.08641975,4.5 C2.08641975,2.025 3.96419753,0 6.25925926,0 C8.55432099,0 10.4320988,2.025 10.4320988,4.5 L10.4320988,6.75 C11.6839506,6.75 12.5185185,7.65 12.5185185,9 L12.5185185,15.75 C12.5185185,17.1 11.6839506,18 10.4320988,18 L2.08641975,18 Z M3.75555556,4.5 L3.75555556,6.75 L8.76296296,6.75 L8.76296296,4.5 C8.76296296,2.925 7.71975309,1.8 6.25925926,1.8 C4.79876543,1.8 3.75555556,2.925 3.75555556,4.5 Z" id="Combined-Shape"></path>
                        </g>
                    </g>
                </g>
            </g>
        </g>
    </g>
</svg>